<svg width="111" height="19" viewBox="0 0 111 19" fill="none" xmlns="http://www.w3.org/2000/svg">
<path d="M0.0160002 18.5V1.7H12.088V4.148H2.896V8.948H9.232V11.348H2.896V18.5H0.0160002ZM14.5154 18.5V6.476H17.2274V18.5H14.5154ZM15.8834 4.028C15.4194 4.028 15.0194 3.868 14.6834 3.548C14.3634 3.212 14.2034 2.82 14.2034 2.372C14.2034 1.908 14.3634 1.516 14.6834 1.196C15.0194 0.859999 15.4194 0.691999 15.8834 0.691999C16.3474 0.691999 16.7394 0.859999 17.0594 1.196C17.3954 1.516 17.5634 1.9 17.5634 2.348C17.5634 2.812 17.3954 3.212 17.0594 3.548C16.7394 3.868 16.3474 4.028 15.8834 4.028ZM20.5863 18.5V6.476H23.2983V8.444C23.7623 7.724 24.3143 7.188 24.9543 6.836C25.5943 6.468 26.3063 6.284 27.0903 6.284C27.9223 6.284 28.6503 6.468 29.2743 6.836C29.8983 7.188 30.3863 7.684 30.7383 8.324C31.1063 8.964 31.2903 9.716 31.2903 10.58V18.5H28.5543V11.348C28.5543 10.468 28.3143 9.772 27.8343 9.26C27.3543 8.732 26.7143 8.468 25.9143 8.468C25.3703 8.468 24.8743 8.596 24.4263 8.852C23.9943 9.092 23.6183 9.452 23.2983 9.932V18.5H20.5863ZM39.427 18.62C38.419 18.62 37.507 18.348 36.691 17.804C35.875 17.244 35.219 16.508 34.723 15.596C34.243 14.668 34.003 13.636 34.003 12.5C34.003 11.348 34.251 10.316 34.747 9.404C35.243 8.476 35.915 7.74 36.763 7.196C37.627 6.652 38.579 6.38 39.619 6.38C40.307 6.38 40.947 6.516 41.539 6.788C42.147 7.044 42.675 7.428 43.123 7.94V1.292L45.835 0.811999V18.5H43.147V16.916C42.715 17.46 42.179 17.884 41.539 18.188C40.899 18.476 40.195 18.62 39.427 18.62ZM40.267 16.34C40.843 16.34 41.379 16.228 41.875 16.004C42.371 15.764 42.787 15.436 43.123 15.02V9.956C42.771 9.54 42.347 9.22 41.851 8.996C41.355 8.772 40.827 8.66 40.267 8.66C39.579 8.66 38.963 8.828 38.419 9.164C37.891 9.484 37.467 9.932 37.147 10.508C36.827 11.084 36.667 11.748 36.667 12.5C36.667 13.22 36.827 13.876 37.147 14.468C37.467 15.044 37.891 15.5 38.419 15.836C38.963 16.172 39.579 16.34 40.267 16.34ZM54.9301 18.5V1.7H58.6741L63.5941 11.9L68.4901 1.7H72.2341V18.5H69.5221V5.348L63.5701 17.3L57.5941 5.276V18.5H54.9301ZM81.4182 18.716C80.2822 18.716 79.2502 18.444 78.3222 17.9C77.4102 17.356 76.6902 16.62 76.1622 15.692C75.6342 14.748 75.3702 13.684 75.3702 12.5C75.3702 11.316 75.6342 10.26 76.1622 9.332C76.6902 8.388 77.4102 7.644 78.3222 7.1C79.2342 6.556 80.2662 6.284 81.4182 6.284C82.5702 6.284 83.5942 6.556 84.4902 7.1C85.4022 7.644 86.1222 8.388 86.6502 9.332C87.1782 10.26 87.4422 11.316 87.4422 12.5C87.4422 13.684 87.1782 14.748 86.6502 15.692C86.1222 16.62 85.4022 17.356 84.4902 17.9C83.5942 18.444 82.5702 18.716 81.4182 18.716ZM81.4182 16.412C82.0742 16.412 82.6502 16.244 83.1462 15.908C83.6582 15.572 84.0582 15.108 84.3462 14.516C84.6342 13.908 84.7782 13.236 84.7782 12.5C84.7782 11.748 84.6342 11.084 84.3462 10.508C84.0582 9.916 83.6582 9.452 83.1462 9.116C82.6502 8.764 82.0742 8.588 81.4182 8.588C80.7622 8.588 80.1782 8.764 79.6662 9.116C79.1542 9.452 78.7542 9.916 78.4662 10.508C78.1782 11.084 78.0342 11.748 78.0342 12.5C78.0342 13.252 78.1782 13.924 78.4662 14.516C78.7542 15.108 79.1542 15.572 79.6662 15.908C80.1782 16.244 80.7622 16.412 81.4182 16.412ZM90.2425 18.5V6.476H92.9545V9.068C93.3065 8.156 93.7625 7.46 94.3225 6.98C94.8825 6.5 95.5305 6.26 96.2665 6.26C96.4905 6.276 96.6905 6.3 96.8665 6.332C97.0425 6.348 97.2345 6.404 97.4425 6.5V8.876C97.2345 8.78 96.9945 8.708 96.7225 8.66C96.4665 8.612 96.2105 8.588 95.9545 8.588C95.2985 8.588 94.7065 8.764 94.1785 9.116C93.6665 9.468 93.2585 9.956 92.9545 10.58V18.5H90.2425ZM104.694 18.74C103.542 18.74 102.502 18.468 101.574 17.924C100.646 17.364 99.9099 16.62 99.3659 15.692C98.8219 14.748 98.5499 13.684 98.5499 12.5C98.5499 11.316 98.8059 10.26 99.3179 9.332C99.8299 8.404 100.526 7.668 101.406 7.124C102.302 6.564 103.294 6.284 104.382 6.284C105.502 6.284 106.486 6.556 107.334 7.1C108.198 7.644 108.87 8.38 109.35 9.308C109.846 10.236 110.094 11.3 110.094 12.5V13.148H101.214C101.31 13.804 101.518 14.388 101.838 14.9C102.174 15.396 102.598 15.788 103.11 16.076C103.638 16.364 104.206 16.508 104.814 16.508C105.374 16.508 105.902 16.412 106.398 16.22C106.91 16.012 107.334 15.732 107.67 15.38L109.446 16.988C108.71 17.596 107.958 18.044 107.19 18.332C106.438 18.604 105.606 18.74 104.694 18.74ZM101.238 11.468H107.526C107.43 10.892 107.23 10.38 106.926 9.932C106.638 9.484 106.27 9.132 105.822 8.876C105.39 8.62 104.91 8.492 104.382 8.492C103.854 8.492 103.366 8.62 102.918 8.876C102.486 9.116 102.126 9.46 101.838 9.908C101.55 10.356 101.35 10.876 101.238 11.468Z" fill="white"/>
</svg>
