<svg width="608" height="30" viewBox="0 0 608 30" fill="none" xmlns="http://www.w3.org/2000/svg">
<path d="M10.76 29.44C8.68 29.44 6.74667 29.08 4.96 28.36C3.17333 27.6133 1.65333 26.5733 0.4 25.24L3.32 22.44C4.44 23.6133 5.56 24.44 6.68 24.92C7.8 25.3733 9.13333 25.6 10.68 25.6C11.9067 25.6 12.9733 25.4133 13.88 25.04C14.8133 24.64 15.5333 24.0933 16.04 23.4C16.5467 22.7067 16.8 21.8933 16.8 20.96C16.8 20.1333 16.5867 19.4 16.16 18.76C15.7333 18.12 15.1467 17.6267 14.4 17.28C13.6533 16.9067 12.7867 16.72 11.8 16.72H8.36V13.04H11.44C12.8 13.04 13.88 12.6667 14.68 11.92C15.5067 11.1733 15.92 10.16 15.92 8.88C15.92 8.05333 15.68 7.30667 15.2 6.64C14.7467 5.94667 14.12 5.41333 13.32 5.04C12.52 4.64 11.6133 4.44 10.6 4.44C9.18667 4.44 7.94667 4.69333 6.88 5.2C5.84 5.68 4.76 6.53333 3.64 7.76L0.68 5C1.96 3.56 3.46667 2.46666 5.2 1.72C6.96 0.946665 8.8 0.559999 10.72 0.559999C12.5867 0.559999 14.24 0.893332 15.68 1.56C17.12 2.22667 18.24 3.16 19.04 4.36C19.8667 5.53333 20.28 6.88 20.28 8.4C20.28 9.89333 19.7867 11.2267 18.8 12.4C17.84 13.5467 16.5733 14.3467 15 14.8C16.8667 15.2 18.36 15.9867 19.48 17.16C20.6267 18.3067 21.2 19.6667 21.2 21.24C21.2 22.8133 20.7467 24.2267 19.84 25.48C18.9333 26.7067 17.6933 27.68 16.12 28.4C14.5733 29.0933 12.7867 29.44 10.76 29.44ZM45.0013 29.44C42.8146 29.44 40.7479 29.0667 38.8013 28.32C36.8813 27.5467 35.0279 26.4133 33.2413 24.92L35.8413 21.4C37.6546 22.8667 39.2679 23.92 40.6813 24.56C42.1213 25.1733 43.6546 25.48 45.2813 25.48C46.5079 25.48 47.5879 25.2933 48.5213 24.92C49.4813 24.52 50.2146 23.9867 50.7213 23.32C51.2546 22.6533 51.5213 21.88 51.5213 21C51.5213 19.8533 51.1346 18.9867 50.3613 18.4C49.6146 17.7867 48.3079 17.32 46.4413 17L41.2813 16.12C38.8546 15.6933 37.0413 14.88 35.8413 13.68C34.6679 12.4533 34.0813 10.8933 34.0813 9C34.0813 7.32 34.5079 5.85333 35.3613 4.6C36.2146 3.32 37.4013 2.33333 38.9213 1.64C40.4679 0.919999 42.2946 0.559999 44.4013 0.559999C46.5079 0.559999 48.5079 0.866666 50.4013 1.48C52.2946 2.09333 54.0413 2.98667 55.6413 4.16L53.2013 7.76C51.7879 6.69333 50.3346 5.89333 48.8413 5.36C47.3479 4.8 45.8146 4.52 44.2413 4.52C43.1213 4.52 42.1346 4.69333 41.2813 5.04C40.4546 5.38667 39.8013 5.86667 39.3213 6.48C38.8679 7.09333 38.6413 7.77333 38.6413 8.52C38.6413 9.53333 38.9746 10.32 39.6413 10.88C40.3346 11.4133 41.4413 11.8133 42.9613 12.08L47.9613 12.92C50.7879 13.4267 52.8679 14.3067 54.2013 15.56C55.5613 16.8133 56.2413 18.5067 56.2413 20.64C56.2413 22.3467 55.7613 23.8667 54.8013 25.2C53.8679 26.5333 52.5613 27.5733 50.8813 28.32C49.2013 29.0667 47.2413 29.44 45.0013 29.44ZM67.5241 29V5.16H58.1641V0.999998H81.6841V5.16H72.3241V29H67.5241ZM86.0319 29V0.999998H106.072V5.08H90.8319V12.88H101.472V16.88H90.8319V24.92H106.232V29H86.0319ZM111.657 29V0.999998H124.177C126.07 0.999998 127.71 1.37333 129.097 2.12C130.51 2.84 131.604 3.85333 132.377 5.16C133.15 6.46667 133.537 7.98667 133.537 9.72C133.537 11.3733 133.15 12.8533 132.377 14.16C131.604 15.4667 130.51 16.4933 129.097 17.24C127.71 17.96 126.07 18.32 124.177 18.32H116.457V29H111.657ZM116.457 14.4H123.417C125.124 14.4 126.43 13.9733 127.337 13.12C128.244 12.24 128.697 11.0933 128.697 9.68C128.697 8.29333 128.244 7.17333 127.337 6.32C126.43 5.46667 125.137 5.04 123.457 5.04H116.457V14.4ZM148.556 29.44C146.369 29.44 144.303 29.0667 142.356 28.32C140.436 27.5467 138.583 26.4133 136.796 24.92L139.396 21.4C141.209 22.8667 142.823 23.92 144.236 24.56C145.676 25.1733 147.209 25.48 148.836 25.48C150.063 25.48 151.143 25.2933 152.076 24.92C153.036 24.52 153.769 23.9867 154.276 23.32C154.809 22.6533 155.076 21.88 155.076 21C155.076 19.8533 154.689 18.9867 153.916 18.4C153.169 17.7867 151.863 17.32 149.996 17L144.836 16.12C142.409 15.6933 140.596 14.88 139.396 13.68C138.223 12.4533 137.636 10.8933 137.636 9C137.636 7.32 138.063 5.85333 138.916 4.6C139.769 3.32 140.956 2.33333 142.476 1.64C144.023 0.919999 145.849 0.559999 147.956 0.559999C150.063 0.559999 152.063 0.866666 153.956 1.48C155.849 2.09333 157.596 2.98667 159.196 4.16L156.756 7.76C155.343 6.69333 153.889 5.89333 152.396 5.36C150.903 4.8 149.369 4.52 147.796 4.52C146.676 4.52 145.689 4.69333 144.836 5.04C144.009 5.38667 143.356 5.86667 142.876 6.48C142.423 7.09333 142.196 7.77333 142.196 8.52C142.196 9.53333 142.529 10.32 143.196 10.88C143.889 11.4133 144.996 11.8133 146.516 12.08L151.516 12.92C154.343 13.4267 156.423 14.3067 157.756 15.56C159.116 16.8133 159.796 18.5067 159.796 20.64C159.796 22.3467 159.316 23.8667 158.356 25.2C157.423 26.5333 156.116 27.5733 154.436 28.32C152.756 29.0667 150.796 29.44 148.556 29.44ZM180.649 29V5.16H171.289V0.999998H194.809V5.16H185.449V29H180.649ZM210.435 29.44C208.462 29.44 206.609 29.08 204.875 28.36C203.169 27.6133 201.662 26.5867 200.355 25.28C199.075 23.9467 198.075 22.4133 197.355 20.68C196.635 18.92 196.275 17.0267 196.275 15C196.275 12.9733 196.635 11.0933 197.355 9.36C198.075 7.6 199.075 6.06667 200.355 4.76C201.662 3.42667 203.169 2.4 204.875 1.68C206.609 0.933332 208.462 0.559999 210.435 0.559999C212.409 0.559999 214.249 0.933332 215.955 1.68C217.689 2.4 219.195 3.42667 220.475 4.76C221.782 6.06667 222.795 7.6 223.515 9.36C224.235 11.0933 224.595 12.9733 224.595 15C224.595 17.0267 224.235 18.92 223.515 20.68C222.795 22.4133 221.782 23.9467 220.475 25.28C219.195 26.5867 217.689 27.6133 215.955 28.36C214.249 29.08 212.409 29.44 210.435 29.44ZM210.435 25.12C211.742 25.12 212.955 24.8667 214.075 24.36C215.195 23.8533 216.169 23.1467 216.995 22.24C217.849 21.3067 218.502 20.2267 218.955 19C219.435 17.7733 219.675 16.44 219.675 15C219.675 13.56 219.435 12.2267 218.955 11C218.502 9.77333 217.849 8.70667 216.995 7.8C216.169 6.86667 215.195 6.14667 214.075 5.64C212.955 5.13333 211.742 4.88 210.435 4.88C209.129 4.88 207.915 5.13333 206.795 5.64C205.675 6.14667 204.689 6.86667 203.835 7.8C202.982 8.70667 202.315 9.77333 201.835 11C201.382 12.2267 201.155 13.56 201.155 15C201.155 16.44 201.382 17.7733 201.835 19C202.315 20.2267 202.982 21.3067 203.835 22.24C204.689 23.1467 205.675 23.8533 206.795 24.36C207.915 24.8667 209.129 25.12 210.435 25.12ZM246.001 29V5.16H236.641V0.999998H260.161V5.16H250.801V29H246.001ZM264.308 29V0.999998H269.108V12.76H283.028V0.999998H287.828V29H283.028V17.04H269.108V29H264.308ZM294.352 29V0.999998H314.392V5.08H299.152V12.88H309.792V16.88H299.152V24.92H314.552V29H294.352ZM328.962 29V0.999998H341.482C343.375 0.999998 345.015 1.37333 346.402 2.12C347.815 2.84 348.908 3.85333 349.682 5.16C350.455 6.46667 350.842 7.98667 350.842 9.72C350.842 11.3733 350.455 12.8533 349.682 14.16C348.908 15.4667 347.815 16.4933 346.402 17.24C345.015 17.96 343.375 18.32 341.482 18.32H333.762V29H328.962ZM333.762 14.4H340.722C342.428 14.4 343.735 13.9733 344.642 13.12C345.548 12.24 346.002 11.0933 346.002 9.68C346.002 8.29333 345.548 7.17333 344.642 6.32C343.735 5.46667 342.442 5.04 340.762 5.04H333.762V14.4ZM356.11 29V0.999998H376.15V5.08H360.91V12.88H371.55V16.88H360.91V24.92H376.31V29H356.11ZM381.735 29V0.999998H394.175C396.015 0.999998 397.642 1.36 399.055 2.08C400.468 2.8 401.562 3.8 402.335 5.08C403.135 6.33333 403.535 7.8 403.535 9.48C403.535 11.2933 403.028 12.88 402.015 14.24C401.028 15.5733 399.682 16.5467 397.975 17.16L403.895 29H398.575L393.175 17.8H386.535V29H381.735ZM386.535 13.96H393.735C395.228 13.96 396.428 13.56 397.335 12.76C398.242 11.9333 398.695 10.8533 398.695 9.52C398.695 8.16 398.242 7.08 397.335 6.28C396.428 5.45333 395.228 5.04 393.735 5.04H386.535V13.96ZM408.61 29V0.999998H428.73V5.08H413.41V13.08H423.97V17.08H413.41V29H408.61ZM433.962 29V0.999998H454.002V5.08H438.762V12.88H449.402V16.88H438.762V24.92H454.162V29H433.962ZM471.223 29.44C469.196 29.44 467.303 29.08 465.543 28.36C463.783 27.6133 462.236 26.5867 460.903 25.28C459.596 23.9467 458.57 22.4133 457.823 20.68C457.103 18.92 456.743 17.0267 456.743 15C456.743 12.9733 457.103 11.0933 457.823 9.36C458.57 7.6 459.596 6.06667 460.903 4.76C462.236 3.42667 463.783 2.4 465.543 1.68C467.303 0.933332 469.196 0.559999 471.223 0.559999C472.663 0.559999 474.05 0.759999 475.383 1.16C476.716 1.56 477.956 2.13333 479.103 2.88C480.276 3.6 481.29 4.49333 482.143 5.56L478.943 8.68C477.956 7.42667 476.796 6.48 475.463 5.84C474.13 5.2 472.716 4.88 471.223 4.88C469.863 4.88 468.596 5.13333 467.423 5.64C466.276 6.14667 465.263 6.86667 464.383 7.8C463.53 8.70667 462.863 9.77333 462.383 11C461.903 12.2267 461.663 13.56 461.663 15C461.663 16.44 461.903 17.7733 462.383 19C462.863 20.2267 463.53 21.3067 464.383 22.24C465.263 23.1467 466.276 23.8533 467.423 24.36C468.596 24.8667 469.863 25.12 471.223 25.12C472.716 25.12 474.13 24.8 475.463 24.16C476.796 23.4933 477.956 22.5467 478.943 21.32L482.143 24.44C481.29 25.48 480.276 26.3733 479.103 27.12C477.956 27.8667 476.716 28.44 475.383 28.84C474.05 29.24 472.663 29.44 471.223 29.44ZM494.36 29V5.16H485V0.999998H508.52V5.16H499.16V29H494.36ZM528.852 29V5.16H519.492V0.999998H543.012V5.16H533.652V29H528.852ZM547.36 29V0.999998H559.8C561.64 0.999998 563.267 1.36 564.68 2.08C566.093 2.8 567.187 3.8 567.96 5.08C568.76 6.33333 569.16 7.8 569.16 9.48C569.16 11.2933 568.653 12.88 567.64 14.24C566.653 15.5733 565.307 16.5467 563.6 17.16L569.52 29H564.2L558.8 17.8H552.16V29H547.36ZM552.16 13.96H559.36C560.853 13.96 562.053 13.56 562.96 12.76C563.867 11.9333 564.32 10.8533 564.32 9.52C564.32 8.16 563.867 7.08 562.96 6.28C562.053 5.45333 560.853 5.04 559.36 5.04H552.16V13.96ZM574.035 29V0.999998H578.835V29H574.035ZM585.368 29V0.999998H597.888C599.781 0.999998 601.421 1.37333 602.808 2.12C604.221 2.84 605.314 3.85333 606.088 5.16C606.861 6.46667 607.248 7.98667 607.248 9.72C607.248 11.3733 606.861 12.8533 606.088 14.16C605.314 15.4667 604.221 16.4933 602.808 17.24C601.421 17.96 599.781 18.32 597.888 18.32H590.168V29H585.368ZM590.168 14.4H597.128C598.834 14.4 600.141 13.9733 601.048 13.12C601.954 12.24 602.408 11.0933 602.408 9.68C602.408 8.29333 601.954 7.17333 601.048 6.32C600.141 5.46667 598.848 5.04 597.168 5.04H590.168V14.4Z" fill="#F2785C"/>
</svg>
