<svg width="723" height="19" viewBox="0 0 723 19" fill="none" xmlns="http://www.w3.org/2000/svg">
<path d="M13.04 13.2C13.36 13.28 13.5 13.4867 13.46 13.82L13.32 15H10.62C10.38 15 10.1867 14.9533 10.04 14.86C9.89333 14.7667 9.77333 14.6333 9.68 14.46L7.2 9.82C7.12 9.66 7.01333 9.54 6.88 9.46C6.76 9.38 6.56 9.34 6.28 9.34H5.28L4.82 13.02L5.4 13.12C5.46667 13.1333 5.52 13.1467 5.56 13.16C5.61333 13.1733 5.66 13.18 5.7 13.18L5.82 13.2C6.14 13.28 6.28 13.4867 6.24 13.82L6.1 15H0.38L0.52 13.82C0.56 13.4867 0.753333 13.28 1.1 13.2L1.22 13.18L1.54 13.12L2.14 13.02L3.42 2.52L2.84 2.42C2.77333 2.40667 2.71333 2.39333 2.66 2.38C2.62 2.36667 2.58667 2.36 2.56 2.36L2.44 2.34C2.12 2.26 1.98 2.05333 2.02 1.72L2.16 0.539999H7.94C8.92667 0.539999 9.76 0.639999 10.44 0.84C11.0933 1.04 11.6333 1.32667 12.06 1.7C12.46 2.06 12.7333 2.5 12.88 3.02C12.9867 3.38 13.04 3.75333 13.04 4.14C13.04 4.27333 13.0267 4.46 13 4.7C12.9333 5.20667 12.8067 5.66667 12.62 6.08C12.4333 6.49333 12.1733 6.88667 11.84 7.26C11.52 7.62 11.1533 7.92667 10.74 8.18C10.3133 8.44667 9.83333 8.66 9.3 8.82C9.62 9.02 9.88 9.3 10.08 9.66L11.94 13.02L12.54 13.12C12.6067 13.1333 12.6667 13.1467 12.72 13.16C12.7867 13.1733 12.8467 13.18 12.9 13.18C12.94 13.18 12.9667 13.1867 12.98 13.2C13.0067 13.2 13.0267 13.2 13.04 13.2ZM8.4 7.22C8.76 7.11333 9.09333 6.94 9.4 6.7C9.64 6.51333 9.85333 6.24667 10.04 5.9C10.2 5.60667 10.3 5.27333 10.34 4.9C10.3533 4.82 10.36 4.7 10.36 4.54C10.36 3.98 10.18 3.53333 9.82 3.2C9.39333 2.81333 8.68 2.62 7.68 2.62H6.1L5.52 7.42H7.06C7.51333 7.42 7.96 7.35333 8.4 7.22ZM22.9467 7.12C22.9467 7.56 22.8534 7.98 22.6667 8.38C22.4801 8.76667 22.1534 9.10667 21.6867 9.4C21.2067 9.69333 20.5667 9.95333 19.7667 10.18C18.9267 10.4067 17.8934 10.58 16.6667 10.7V10.82C16.6667 12.4333 17.3467 13.24 18.7067 13.24C19.0267 13.24 19.2867 13.2133 19.4867 13.16C19.7801 13.08 19.9801 13.0133 20.0867 12.96C20.2334 12.88 20.3867 12.7867 20.5467 12.68L20.9267 12.42C21.1267 12.2867 21.2401 12.2133 21.2667 12.2C21.3734 12.1467 21.5001 12.12 21.6467 12.12C21.7267 12.12 21.8067 12.14 21.8867 12.18C21.9667 12.22 22.0334 12.2733 22.0867 12.34L22.7067 13.1C22.3601 13.4467 22.0134 13.7533 21.6667 14.02C21.2934 14.3 20.9467 14.5133 20.6267 14.66C20.2534 14.82 19.8801 14.94 19.5067 15.02C19.1067 15.1 18.6801 15.14 18.2267 15.14C17.6134 15.14 17.0667 15.04 16.5867 14.84C16.0801 14.6267 15.6667 14.34 15.3467 13.98C14.9867 13.6067 14.7201 13.16 14.5467 12.64C14.3467 12.0667 14.2467 11.48 14.2467 10.88C14.2467 10.3467 14.3067 9.82 14.4267 9.3C14.5601 8.74 14.7267 8.24667 14.9267 7.82C15.1267 7.39333 15.4001 6.96667 15.7467 6.54C16.0667 6.14 16.4267 5.8 16.8267 5.52C17.2534 5.22667 17.7001 5 18.1667 4.84C18.6467 4.68 19.1601 4.6 19.7067 4.6C20.2534 4.6 20.7267 4.68 21.1267 4.84C21.5934 5.02667 21.9334 5.22 22.1467 5.42C22.3867 5.63333 22.5867 5.90667 22.7467 6.24C22.8801 6.52 22.9467 6.81333 22.9467 7.12ZM19.5667 6.32C19.2201 6.32 18.9134 6.38667 18.6467 6.52C18.3401 6.66667 18.0801 6.86 17.8667 7.1C17.6267 7.34 17.4267 7.63333 17.2667 7.98C17.1067 8.32667 16.9734 8.70667 16.8667 9.12C17.7601 8.98667 18.4267 8.86 18.8667 8.74C19.3734 8.59333 19.7601 8.44667 20.0267 8.3C20.3334 8.12667 20.5201 7.96 20.5867 7.8C20.6667 7.65333 20.7067 7.46 20.7067 7.22C20.7067 7.1 20.6867 6.99333 20.6467 6.9C20.6067 6.80667 20.5401 6.71333 20.4467 6.62C20.3134 6.51333 20.2001 6.44 20.1067 6.4C19.9867 6.34667 19.8067 6.32 19.5667 6.32ZM31.9603 13.46C31.6403 13.78 31.307 14.0533 30.9603 14.28C30.6803 14.4667 30.327 14.64 29.9003 14.8C29.567 14.9067 29.2003 14.9933 28.8003 15.06C28.467 15.1133 28.1003 15.14 27.7003 15.14C27.047 15.14 26.467 15.0267 25.9603 14.8C25.427 14.56 24.9803 14.2133 24.6203 13.76C24.2603 13.2933 24.0003 12.74 23.8403 12.1C23.747 11.7267 23.7003 11.3 23.7003 10.82C23.7003 10.5 23.7203 10.1733 23.7603 9.84C23.867 9.05333 24.0603 8.36 24.3403 7.76C24.647 7.10667 25.0336 6.54667 25.5003 6.08C25.9803 5.6 26.5403 5.23333 27.1803 4.98C27.8603 4.71333 28.5936 4.58 29.3803 4.58C30.2336 4.58 31.2803 4.82667 32.5203 5.32L32.1203 8.48H30.9803C30.727 8.48 30.587 8.35333 30.5603 8.1L30.5803 6.66C30.1003 6.52667 29.6736 6.46 29.3003 6.46C28.8603 6.46 28.467 6.54 28.1203 6.7C27.747 6.87333 27.447 7.09333 27.2203 7.36C26.9936 7.61333 26.7936 7.97333 26.6203 8.44C26.447 8.89333 26.3336 9.36 26.2803 9.84C26.2536 10.1867 26.2403 10.4467 26.2403 10.62C26.2403 10.78 26.2536 11.0067 26.2803 11.3C26.347 11.7133 26.467 12.0733 26.6403 12.38C26.827 12.66 27.067 12.88 27.3603 13.04C27.6803 13.1867 28.027 13.26 28.4003 13.26C28.8136 13.26 29.1403 13.2133 29.3803 13.12C29.6336 13.0267 29.847 12.92 30.0203 12.8L30.5003 12.48C30.6336 12.3867 30.7803 12.34 30.9403 12.34C31.1536 12.34 31.2936 12.4133 31.3603 12.56L31.9603 13.46ZM41.9506 7.12C41.9506 7.56 41.8573 7.98 41.6706 8.38C41.484 8.76667 41.1573 9.10667 40.6906 9.4C40.2106 9.69333 39.5706 9.95333 38.7706 10.18C37.9306 10.4067 36.8973 10.58 35.6706 10.7V10.82C35.6706 12.4333 36.3506 13.24 37.7106 13.24C38.0306 13.24 38.2906 13.2133 38.4906 13.16C38.784 13.08 38.984 13.0133 39.0906 12.96C39.2373 12.88 39.3906 12.7867 39.5506 12.68L39.9306 12.42C40.1306 12.2867 40.244 12.2133 40.2706 12.2C40.3773 12.1467 40.504 12.12 40.6506 12.12C40.7306 12.12 40.8106 12.14 40.8906 12.18C40.9706 12.22 41.0373 12.2733 41.0906 12.34L41.7106 13.1C41.364 13.4467 41.0173 13.7533 40.6706 14.02C40.2973 14.3 39.9506 14.5133 39.6306 14.66C39.2573 14.82 38.884 14.94 38.5106 15.02C38.1106 15.1 37.684 15.14 37.2306 15.14C36.6173 15.14 36.0706 15.04 35.5906 14.84C35.084 14.6267 34.6706 14.34 34.3506 13.98C33.9906 13.6067 33.724 13.16 33.5506 12.64C33.3506 12.0667 33.2506 11.48 33.2506 10.88C33.2506 10.3467 33.3106 9.82 33.4306 9.3C33.564 8.74 33.7306 8.24667 33.9306 7.82C34.1306 7.39333 34.404 6.96667 34.7506 6.54C35.0706 6.14 35.4306 5.8 35.8306 5.52C36.2573 5.22667 36.704 5 37.1706 4.84C37.6506 4.68 38.164 4.6 38.7106 4.6C39.2573 4.6 39.7306 4.68 40.1306 4.84C40.5973 5.02667 40.9373 5.22 41.1506 5.42C41.3906 5.63333 41.5906 5.90667 41.7506 6.24C41.884 6.52 41.9506 6.81333 41.9506 7.12ZM38.5706 6.32C38.224 6.32 37.9173 6.38667 37.6506 6.52C37.344 6.66667 37.084 6.86 36.8706 7.1C36.6306 7.34 36.4306 7.63333 36.2706 7.98C36.1106 8.32667 35.9773 8.70667 35.8706 9.12C36.764 8.98667 37.4306 8.86 37.8706 8.74C38.3773 8.59333 38.764 8.44667 39.0306 8.3C39.3373 8.12667 39.524 7.96 39.5906 7.8C39.6706 7.65333 39.7106 7.46 39.7106 7.22C39.7106 7.1 39.6906 6.99333 39.6506 6.9C39.6106 6.80667 39.544 6.71333 39.4506 6.62C39.3173 6.51333 39.204 6.44 39.1106 6.4C38.9906 6.34667 38.8106 6.32 38.5706 6.32ZM47.5842 1.6C47.5842 1.86667 47.5176 2.12 47.3842 2.36C47.3042 2.50667 47.1642 2.66667 46.9642 2.84C46.7909 2.98667 46.6109 3.1 46.4242 3.18C46.2242 3.26 46.0109 3.3 45.7842 3.3C45.5842 3.3 45.3909 3.26 45.2042 3.18C45.0176 3.1 44.8642 2.98667 44.7442 2.84C44.6109 2.69333 44.5176 2.53333 44.4642 2.36C44.4109 2.21333 44.3976 2.01333 44.4242 1.76C44.4376 1.56 44.5042 1.34667 44.6242 1.12C44.7042 0.96 44.8376 0.799999 45.0242 0.639999C45.2109 0.479999 45.3842 0.366666 45.5442 0.3C45.7709 0.206666 45.9776 0.159999 46.1642 0.159999C46.3642 0.159999 46.5709 0.206666 46.7842 0.3C46.9709 0.379999 47.1242 0.493333 47.2442 0.639999C47.3776 0.799999 47.4709 0.96 47.5242 1.12C47.5642 1.25333 47.5842 1.41333 47.5842 1.6ZM46.8242 13.2C47.1442 13.28 47.2842 13.4867 47.2442 13.82L47.1042 15H43.1042L43.3642 13.02L44.1242 6.72L43.5442 6.62L43.2642 6.56L43.1442 6.54C42.8109 6.46 42.6642 6.25333 42.7042 5.92L42.8642 4.74H46.8442L45.8242 13.02L46.4042 13.12L46.6842 13.18C46.7242 13.1933 46.7709 13.2 46.8242 13.2ZM60.0888 5.92C60.0488 6.25333 59.8554 6.46 59.5088 6.54C59.4688 6.54 59.3887 6.55333 59.2687 6.58C59.1621 6.60667 58.9221 6.65333 58.5488 6.72L54.2488 15H52.0088L49.7288 6.72C49.0621 6.6 48.7554 6.54 48.8088 6.54C48.4754 6.46 48.3288 6.25333 48.3688 5.92L48.5288 4.74H53.5088L53.3688 5.92C53.3288 6.25333 53.1354 6.46 52.7888 6.54L52.2288 6.64L53.1888 10.68C53.2688 10.9867 53.3288 11.3 53.3688 11.62C53.3954 11.8067 53.4221 12.1133 53.4488 12.54C53.6088 12.06 53.7154 11.7533 53.7688 11.62C53.9021 11.2867 54.0421 10.9733 54.1888 10.68L56.1688 6.66C55.9288 6.62 55.7688 6.59333 55.6888 6.58C55.6221 6.55333 55.5688 6.54 55.5288 6.54C55.1954 6.46 55.0488 6.25333 55.0888 5.92L55.2488 4.74H60.2288L60.0888 5.92ZM69.685 7.12C69.685 7.56 69.5917 7.98 69.405 8.38C69.2183 8.76667 68.8917 9.10667 68.425 9.4C67.945 9.69333 67.305 9.95333 66.505 10.18C65.665 10.4067 64.6317 10.58 63.405 10.7V10.82C63.405 12.4333 64.085 13.24 65.445 13.24C65.765 13.24 66.025 13.2133 66.225 13.16C66.5183 13.08 66.7183 13.0133 66.825 12.96C66.9717 12.88 67.125 12.7867 67.285 12.68L67.665 12.42C67.865 12.2867 67.9783 12.2133 68.005 12.2C68.1117 12.1467 68.2383 12.12 68.385 12.12C68.465 12.12 68.545 12.14 68.625 12.18C68.705 12.22 68.7717 12.2733 68.825 12.34L69.445 13.1C69.0983 13.4467 68.7517 13.7533 68.405 14.02C68.0317 14.3 67.685 14.5133 67.365 14.66C66.9917 14.82 66.6183 14.94 66.245 15.02C65.845 15.1 65.4183 15.14 64.965 15.14C64.3517 15.14 63.805 15.04 63.325 14.84C62.8183 14.6267 62.405 14.34 62.085 13.98C61.725 13.6067 61.4583 13.16 61.285 12.64C61.085 12.0667 60.985 11.48 60.985 10.88C60.985 10.3467 61.045 9.82 61.165 9.3C61.2983 8.74 61.465 8.24667 61.665 7.82C61.865 7.39333 62.1383 6.96667 62.485 6.54C62.805 6.14 63.165 5.8 63.565 5.52C63.9917 5.22667 64.4383 5 64.905 4.84C65.385 4.68 65.8983 4.6 66.445 4.6C66.9917 4.6 67.465 4.68 67.865 4.84C68.3317 5.02667 68.6717 5.22 68.885 5.42C69.125 5.63333 69.325 5.90667 69.485 6.24C69.6183 6.52 69.685 6.81333 69.685 7.12ZM66.305 6.32C65.9583 6.32 65.6517 6.38667 65.385 6.52C65.0783 6.66667 64.8183 6.86 64.605 7.1C64.365 7.34 64.165 7.63333 64.005 7.98C63.845 8.32667 63.7117 8.70667 63.605 9.12C64.4983 8.98667 65.165 8.86 65.605 8.74C66.1117 8.59333 66.4983 8.44667 66.765 8.3C67.0717 8.12667 67.2583 7.96 67.325 7.8C67.405 7.65333 67.445 7.46 67.445 7.22C67.445 7.1 67.425 6.99333 67.385 6.9C67.345 6.80667 67.2783 6.71333 67.185 6.62C67.0517 6.51333 66.9383 6.44 66.845 6.4C66.725 6.34667 66.545 6.32 66.305 6.32ZM87.0475 7.56C87.1008 7.84 87.1275 8.18667 87.1275 8.6C87.1275 9.01333 87.1008 9.40667 87.0475 9.78C86.9542 10.5267 86.7608 11.24 86.4675 11.92C86.1875 12.5733 85.8275 13.14 85.3875 13.62C84.9742 14.0733 84.4608 14.4467 83.8475 14.74C83.3008 15.0067 82.6742 15.14 81.9675 15.14C81.3675 15.14 80.8875 15.0533 80.5275 14.88C80.1542 14.7067 79.8275 14.46 79.5475 14.14L79.2675 16.36L79.8475 16.48C80.0342 16.5067 80.1275 16.52 80.1275 16.52L80.2475 16.54C80.5808 16.62 80.7275 16.8333 80.6875 17.18L80.5275 18.34H75.0475L75.1875 17.18C75.2275 16.8333 75.4208 16.62 75.7675 16.54L75.8875 16.52L76.1875 16.48C76.2542 16.4667 76.3342 16.4467 76.4275 16.42C76.5342 16.4067 76.6542 16.3867 76.7875 16.36L77.9875 6.72L77.4075 6.62C77.3408 6.60667 77.2808 6.59333 77.2275 6.58C77.1875 6.56667 77.1475 6.56 77.1075 6.56L76.9875 6.54C76.6675 6.46 76.5275 6.25333 76.5675 5.92L76.7075 4.74H79.7275C79.9008 4.74 80.0342 4.78 80.1275 4.86C80.2342 4.94 80.2942 5.05333 80.3075 5.2L80.3875 6.14C80.8275 5.7 81.3542 5.32 81.9675 5C82.5408 4.70667 83.1808 4.56 83.8875 4.56C84.4742 4.56 84.9742 4.67333 85.3875 4.9C85.8275 5.14 86.1875 5.48 86.4675 5.92C86.7475 6.37333 86.9408 6.92 87.0475 7.56ZM84.1275 11.34C84.2875 10.8867 84.4075 10.3733 84.4875 9.8C84.5275 9.44 84.5475 9.12 84.5475 8.84C84.5475 8.57333 84.5408 8.38 84.5275 8.26C84.4875 7.87333 84.3942 7.54 84.2475 7.26C84.1008 6.99333 83.9075 6.8 83.6675 6.68C83.4275 6.56 83.1408 6.5 82.8075 6.5C82.2875 6.5 81.8342 6.60667 81.4475 6.82C81.0475 7.06 80.6742 7.36667 80.3275 7.74L79.7675 12.34C80.0075 12.6867 80.2808 12.9267 80.5875 13.06C80.9208 13.2067 81.2675 13.28 81.6275 13.28C81.9875 13.28 82.3342 13.2067 82.6675 13.06C82.9742 12.9267 83.2542 12.7133 83.5075 12.42C83.7742 12.1133 83.9808 11.7533 84.1275 11.34ZM96.5991 7.12C96.5991 7.56 96.5057 7.98 96.3191 8.38C96.1324 8.76667 95.8057 9.10667 95.3391 9.4C94.8591 9.69333 94.2191 9.95333 93.4191 10.18C92.5791 10.4067 91.5457 10.58 90.3191 10.7V10.82C90.3191 12.4333 90.9991 13.24 92.3591 13.24C92.6791 13.24 92.9391 13.2133 93.1391 13.16C93.4324 13.08 93.6324 13.0133 93.7391 12.96C93.8857 12.88 94.0391 12.7867 94.1991 12.68L94.5791 12.42C94.7791 12.2867 94.8924 12.2133 94.9191 12.2C95.0257 12.1467 95.1524 12.12 95.2991 12.12C95.3791 12.12 95.4591 12.14 95.5391 12.18C95.6191 12.22 95.6857 12.2733 95.7391 12.34L96.3591 13.1C96.0124 13.4467 95.6657 13.7533 95.3191 14.02C94.9457 14.3 94.5991 14.5133 94.2791 14.66C93.9057 14.82 93.5324 14.94 93.1591 15.02C92.7591 15.1 92.3324 15.14 91.8791 15.14C91.2657 15.14 90.7191 15.04 90.2391 14.84C89.7324 14.6267 89.3191 14.34 88.9991 13.98C88.6391 13.6067 88.3724 13.16 88.1991 12.64C87.9991 12.0667 87.8991 11.48 87.8991 10.88C87.8991 10.3467 87.9591 9.82 88.0791 9.3C88.2124 8.74 88.3791 8.24667 88.5791 7.82C88.7791 7.39333 89.0524 6.96667 89.3991 6.54C89.7191 6.14 90.0791 5.8 90.4791 5.52C90.9057 5.22667 91.3524 5 91.8191 4.84C92.2991 4.68 92.8124 4.6 93.3591 4.6C93.9057 4.6 94.3791 4.68 94.7791 4.84C95.2457 5.02667 95.5857 5.22 95.7991 5.42C96.0391 5.63333 96.2391 5.90667 96.3991 6.24C96.5324 6.52 96.5991 6.81333 96.5991 7.12ZM93.2191 6.32C92.8724 6.32 92.5657 6.38667 92.2991 6.52C91.9924 6.66667 91.7324 6.86 91.5191 7.1C91.2791 7.34 91.0791 7.63333 90.9191 7.98C90.7591 8.32667 90.6257 8.70667 90.5191 9.12C91.4124 8.98667 92.0791 8.86 92.5191 8.74C93.0257 8.59333 93.4124 8.44667 93.6791 8.3C93.9857 8.12667 94.1724 7.96 94.2391 7.8C94.3191 7.65333 94.3591 7.46 94.3591 7.22C94.3591 7.1 94.3391 6.99333 94.2991 6.9C94.2591 6.80667 94.1924 6.71333 94.0991 6.62C93.9657 6.51333 93.8524 6.44 93.7591 6.4C93.6391 6.34667 93.4591 6.32 93.2191 6.32ZM104.333 4.56C104.866 4.56 105.273 4.67333 105.553 4.9L105.013 6.76C104.973 6.88 104.913 6.96 104.833 7C104.766 7.05333 104.673 7.08 104.553 7.08C104.446 7.08 104.313 7.06 104.153 7.02C103.939 6.96667 103.713 6.94 103.473 6.94C102.966 6.94 102.513 7.08 102.113 7.36C101.739 7.62667 101.379 8.04667 101.033 8.62L100.593 12.18L100.233 15H97.7727L98.0127 13.02L98.1527 11.84L98.2527 11.14L98.7927 6.72L97.7927 6.54C97.4727 6.46 97.3327 6.25333 97.3727 5.92L97.5127 4.74H100.473C100.739 4.74 100.913 4.78667 100.993 4.88C101.086 5 101.133 5.16 101.133 5.36V6.6C101.573 5.97333 102.066 5.47333 102.613 5.1C103.159 4.74 103.733 4.56 104.333 4.56ZM113.938 10.68C114.018 10.8933 114.058 11.14 114.058 11.42C114.058 12.02 113.904 12.5867 113.598 13.12C113.358 13.5467 113.051 13.9067 112.678 14.2C112.278 14.5067 111.818 14.74 111.298 14.9C110.778 15.0733 110.184 15.16 109.518 15.16C108.918 15.16 108.331 15.1067 107.758 15C107.198 14.8933 106.724 14.76 106.338 14.6L106.458 13.6L106.678 11.7H107.838C108.091 11.7 108.231 11.8267 108.258 12.08L108.238 13.26C108.584 13.3667 109.118 13.42 109.838 13.42C110.118 13.42 110.378 13.3867 110.618 13.32C110.831 13.24 111.011 13.1467 111.158 13.04C111.344 12.9067 111.464 12.78 111.518 12.66C111.584 12.5133 111.631 12.3533 111.658 12.18V12.06C111.658 11.8867 111.611 11.7333 111.518 11.6C111.424 11.4667 111.251 11.3333 110.998 11.2C110.771 11.0667 110.518 10.9667 110.238 10.9L109.338 10.6C109.098 10.52 108.804 10.3933 108.458 10.22C108.151 10.0733 107.904 9.89333 107.718 9.68C107.478 9.42667 107.318 9.16 107.238 8.88C107.171 8.64 107.138 8.39333 107.138 8.14C107.138 7.95333 107.144 7.81333 107.158 7.72C107.224 7.26667 107.357 6.86667 107.558 6.52C107.784 6.12 108.071 5.78667 108.418 5.52C108.804 5.22667 109.238 5 109.718 4.84C110.264 4.66667 110.831 4.58 111.418 4.58C111.938 4.58 112.384 4.61333 112.758 4.68C113.144 4.74667 113.671 4.89333 114.338 5.12L113.978 8.02H112.818C112.564 8.02 112.424 7.89333 112.398 7.64L112.418 6.52C112.138 6.42667 111.744 6.38 111.238 6.38C110.744 6.38 110.351 6.48 110.058 6.68C109.751 6.88 109.578 7.15333 109.538 7.5V7.6C109.538 7.77333 109.584 7.92667 109.678 8.06C109.758 8.16667 109.931 8.29333 110.198 8.44C110.464 8.58667 110.718 8.69333 110.958 8.76L111.858 9.04C112.058 9.10667 112.344 9.23333 112.718 9.42C113.011 9.56667 113.258 9.74 113.458 9.94C113.684 10.14 113.844 10.3867 113.938 10.68ZM120.887 4.58C121.62 4.58 122.3 4.70667 122.927 4.96C123.527 5.2 124.013 5.54667 124.387 6C124.787 6.48 125.06 7.03333 125.207 7.66C125.313 8.11333 125.367 8.56 125.367 9C125.367 9.25333 125.347 9.53333 125.307 9.84C125.213 10.6267 125 11.36 124.667 12.04C124.347 12.7067 123.94 13.2667 123.447 13.72C122.927 14.2 122.353 14.5533 121.727 14.78C121.073 15.02 120.36 15.14 119.587 15.14C118.827 15.14 118.147 15.02 117.547 14.78C116.947 14.54 116.453 14.1867 116.067 13.72C115.68 13.2533 115.407 12.6933 115.247 12.04C115.14 11.5867 115.087 11.14 115.087 10.7C115.087 10.42 115.107 10.1333 115.147 9.84C115.24 9.06667 115.453 8.34 115.787 7.66C116.093 7.03333 116.507 6.48 117.027 6C117.52 5.54667 118.093 5.2 118.747 4.96C119.44 4.70667 120.153 4.58 120.887 4.58ZM119.827 13.24C120.68 13.24 121.347 12.9533 121.827 12.38C122.293 11.8067 122.6 10.9667 122.747 9.86C122.787 9.54 122.807 9.24 122.807 8.96C122.807 8.29333 122.687 7.75333 122.447 7.34C122.1 6.75333 121.507 6.46 120.667 6.46C119.787 6.46 119.107 6.75333 118.627 7.34C118.16 7.91333 117.853 8.76 117.707 9.88C117.667 10.2 117.647 10.5 117.647 10.78C117.647 11.42 117.767 11.9533 118.007 12.38C118.34 12.9533 118.947 13.24 119.827 13.24ZM136.761 13.2C137.081 13.28 137.221 13.4867 137.181 13.82L137.041 15H133.041L133.841 8.48C133.868 8.26667 133.881 8.12 133.881 8.04C133.881 7.62667 133.788 7.28667 133.601 7.02C133.361 6.67333 132.948 6.5 132.361 6.5C131.935 6.5 131.521 6.6 131.121 6.8C130.681 7.01333 130.295 7.27333 129.961 7.58L129.561 10.84L129.501 11.32L129.301 13.02L129.041 15H126.581L126.941 12.02L127.601 6.72L127.021 6.62C126.955 6.60667 126.895 6.59333 126.841 6.58C126.801 6.56667 126.761 6.56 126.721 6.56L126.601 6.54C126.281 6.46 126.141 6.25333 126.181 5.92L126.321 4.74H129.341C129.661 4.74 129.855 4.89333 129.921 5.2L130.001 6C130.241 5.77333 130.481 5.58 130.721 5.42C130.988 5.23333 131.248 5.08667 131.501 4.98C131.875 4.82 132.161 4.72 132.361 4.68C132.695 4.61333 133.021 4.58 133.341 4.58C133.928 4.58 134.415 4.67333 134.801 4.86C135.201 5.04667 135.528 5.31333 135.781 5.66C136.008 5.98 136.175 6.39333 136.281 6.9C136.335 7.15333 136.361 7.44667 136.361 7.78C136.361 8.08667 136.348 8.32 136.321 8.48L135.761 13.02L136.341 13.12L136.621 13.18C136.661 13.1933 136.708 13.2 136.761 13.2ZM147.118 13.18C147.451 13.26 147.598 13.4667 147.558 13.8L147.398 14.98H144.858C144.551 14.98 144.338 14.9133 144.218 14.78C144.098 14.6333 144.038 14.4533 144.038 14.24L144.118 12.84C143.624 13.5867 143.118 14.1467 142.598 14.52C142.051 14.9333 141.424 15.14 140.718 15.14C140.344 15.14 139.984 15.06 139.638 14.9C139.278 14.7267 138.984 14.5 138.758 14.22C138.518 13.94 138.324 13.56 138.178 13.08C138.031 12.6 137.958 12.0667 137.958 11.48C137.958 10.8533 138.038 10.2533 138.198 9.68C138.384 9.02667 138.598 8.48 138.838 8.04C139.131 7.50667 139.471 7.04 139.858 6.64C140.284 6.2 140.738 5.83333 141.218 5.54C141.791 5.19333 142.324 4.95333 142.818 4.82C143.404 4.66 144.011 4.58 144.638 4.58C145.064 4.58 145.531 4.61333 146.038 4.68C146.504 4.74667 146.958 4.86667 147.398 5.04L146.398 13.06L146.418 13.04L146.918 13.14L147.118 13.18ZM144.798 6.36C144.558 6.33333 144.391 6.32 144.298 6.32C143.738 6.32 143.224 6.44667 142.758 6.7C142.291 6.95333 141.884 7.29333 141.538 7.72C141.178 8.18667 140.904 8.68667 140.718 9.22C140.531 9.74 140.438 10.3467 140.438 11.04C140.438 11.76 140.544 12.2867 140.758 12.62C140.971 12.9533 141.284 13.12 141.698 13.12C141.964 13.12 142.231 13.0267 142.498 12.84C142.751 12.6667 142.998 12.4067 143.238 12.06C143.491 11.7133 143.711 11.3267 143.898 10.9C144.111 10.42 144.284 9.94 144.418 9.46L144.798 6.36ZM152.049 13.2C152.369 13.28 152.509 13.4867 152.469 13.82L152.329 15H148.329L148.589 13.02L149.929 2.12L149.349 2.02C149.282 2.00667 149.222 1.99333 149.169 1.98C149.129 1.96667 149.089 1.96 149.049 1.96L148.929 1.94C148.609 1.86 148.469 1.65333 148.509 1.32L148.649 0.139999H152.629L151.049 13.02L151.629 13.12L151.929 13.18L152.049 13.2ZM158.248 1.6C158.248 1.86667 158.182 2.12 158.048 2.36C157.968 2.50667 157.828 2.66667 157.628 2.84C157.455 2.98667 157.275 3.1 157.088 3.18C156.888 3.26 156.675 3.3 156.448 3.3C156.248 3.3 156.055 3.26 155.868 3.18C155.682 3.1 155.528 2.98667 155.408 2.84C155.275 2.69333 155.182 2.53333 155.128 2.36C155.075 2.21333 155.062 2.01333 155.088 1.76C155.102 1.56 155.168 1.34667 155.288 1.12C155.368 0.96 155.502 0.799999 155.688 0.639999C155.875 0.479999 156.048 0.366666 156.208 0.3C156.435 0.206666 156.642 0.159999 156.828 0.159999C157.028 0.159999 157.235 0.206666 157.448 0.3C157.635 0.379999 157.788 0.493333 157.908 0.639999C158.042 0.799999 158.135 0.96 158.188 1.12C158.228 1.25333 158.248 1.41333 158.248 1.6ZM157.488 13.2C157.808 13.28 157.948 13.4867 157.908 13.82L157.768 15H153.768L154.028 13.02L154.788 6.72L154.208 6.62L153.928 6.56L153.808 6.54C153.475 6.46 153.328 6.25333 153.368 5.92L153.528 4.74H157.508L156.488 13.02L157.068 13.12L157.348 13.18C157.388 13.1933 157.435 13.2 157.488 13.2ZM167.213 15H159.013L159.133 13.96C159.159 13.84 159.206 13.7067 159.273 13.56C159.366 13.3733 159.466 13.2267 159.573 13.12L165.293 6.64H162.073C161.979 7.04 161.913 7.3 161.873 7.42C161.833 7.54 161.813 7.61333 161.813 7.64C161.733 7.89333 161.566 8.02 161.313 8.02H160.153L160.553 4.86V4.74H168.333L168.213 5.76C168.199 5.92 168.146 6.08667 168.053 6.26C167.959 6.44667 167.873 6.58667 167.793 6.68L162.113 13.1H165.713L165.953 12.02C166.033 11.7667 166.206 11.64 166.473 11.64H167.633L167.213 15ZM177.79 7.12C177.79 7.56 177.697 7.98 177.51 8.38C177.324 8.76667 176.997 9.10667 176.53 9.4C176.05 9.69333 175.41 9.95333 174.61 10.18C173.77 10.4067 172.737 10.58 171.51 10.7V10.82C171.51 12.4333 172.19 13.24 173.55 13.24C173.87 13.24 174.13 13.2133 174.33 13.16C174.624 13.08 174.824 13.0133 174.93 12.96C175.077 12.88 175.23 12.7867 175.39 12.68L175.77 12.42C175.97 12.2867 176.084 12.2133 176.11 12.2C176.217 12.1467 176.344 12.12 176.49 12.12C176.57 12.12 176.65 12.14 176.73 12.18C176.81 12.22 176.877 12.2733 176.93 12.34L177.55 13.1C177.204 13.4467 176.857 13.7533 176.51 14.02C176.137 14.3 175.79 14.5133 175.47 14.66C175.097 14.82 174.724 14.94 174.35 15.02C173.95 15.1 173.524 15.14 173.07 15.14C172.457 15.14 171.91 15.04 171.43 14.84C170.924 14.6267 170.51 14.34 170.19 13.98C169.83 13.6067 169.564 13.16 169.39 12.64C169.19 12.0667 169.09 11.48 169.09 10.88C169.09 10.3467 169.15 9.82 169.27 9.3C169.404 8.74 169.57 8.24667 169.77 7.82C169.97 7.39333 170.244 6.96667 170.59 6.54C170.91 6.14 171.27 5.8 171.67 5.52C172.097 5.22667 172.544 5 173.01 4.84C173.49 4.68 174.004 4.6 174.55 4.6C175.097 4.6 175.57 4.68 175.97 4.84C176.437 5.02667 176.777 5.22 176.99 5.42C177.23 5.63333 177.43 5.90667 177.59 6.24C177.724 6.52 177.79 6.81333 177.79 7.12ZM174.41 6.32C174.064 6.32 173.757 6.38667 173.49 6.52C173.184 6.66667 172.924 6.86 172.71 7.1C172.47 7.34 172.27 7.63333 172.11 7.98C171.95 8.32667 171.817 8.70667 171.71 9.12C172.604 8.98667 173.27 8.86 173.71 8.74C174.217 8.59333 174.604 8.44667 174.87 8.3C175.177 8.12667 175.364 7.96 175.43 7.8C175.51 7.65333 175.55 7.46 175.55 7.22C175.55 7.1 175.53 6.99333 175.49 6.9C175.45 6.80667 175.384 6.71333 175.29 6.62C175.157 6.51333 175.044 6.44 174.95 6.4C174.83 6.34667 174.65 6.32 174.41 6.32ZM185.924 14.96C185.764 14.96 185.631 14.92 185.524 14.84C185.417 14.76 185.357 14.6467 185.344 14.5L185.264 13.56C184.811 14.0267 184.291 14.4067 183.704 14.7C183.131 14.9933 182.484 15.14 181.764 15.14C181.177 15.14 180.677 15.0267 180.264 14.8C179.824 14.56 179.464 14.22 179.184 13.78C178.904 13.3267 178.711 12.78 178.604 12.14C178.551 11.6867 178.524 11.3333 178.524 11.08C178.524 10.8533 178.551 10.46 178.604 9.9C178.697 9.16667 178.891 8.46 179.184 7.78C179.451 7.15333 179.817 6.58667 180.284 6.08C180.711 5.61333 181.217 5.24 181.804 4.96C182.391 4.68 183.017 4.54 183.684 4.54C184.244 4.54 184.724 4.63333 185.124 4.82C185.551 5.02 185.884 5.26 186.124 5.54L186.544 2.12L185.964 2.02L185.664 1.96L185.544 1.94C185.224 1.86 185.084 1.65333 185.124 1.32L185.264 0.139999H189.244L187.664 13L188.164 13.08L188.424 13.14L188.544 13.16C188.864 13.24 189.004 13.4467 188.964 13.78L188.824 14.96H185.924ZM185.904 7.36C185.664 7.01333 185.384 6.77333 185.064 6.64C184.731 6.49333 184.384 6.42 184.024 6.42C183.664 6.42 183.317 6.49333 182.984 6.64C182.677 6.77333 182.397 6.98667 182.144 7.28C181.877 7.58667 181.671 7.94667 181.524 8.36C181.364 8.81333 181.244 9.32667 181.164 9.9C181.124 10.26 181.104 10.58 181.104 10.86C181.104 11.1267 181.111 11.32 181.124 11.44C181.164 11.8267 181.257 12.16 181.404 12.44C181.537 12.6933 181.737 12.8867 182.004 13.02C182.244 13.14 182.524 13.2 182.844 13.2C183.364 13.2 183.817 13.0933 184.204 12.88C184.604 12.64 184.977 12.3333 185.324 11.96L185.904 7.36ZM201.598 4.56C202.132 4.56 202.538 4.67333 202.818 4.9L202.278 6.76C202.238 6.88 202.178 6.96 202.098 7C202.032 7.05333 201.938 7.08 201.818 7.08C201.712 7.08 201.578 7.06 201.418 7.02C201.205 6.96667 200.978 6.94 200.738 6.94C200.232 6.94 199.778 7.08 199.378 7.36C199.005 7.62667 198.645 8.04667 198.298 8.62L197.858 12.18L197.498 15H195.038L195.278 13.02L195.418 11.84L195.518 11.14L196.058 6.72L195.058 6.54C194.738 6.46 194.598 6.25333 194.638 5.92L194.778 4.74H197.738C198.005 4.74 198.178 4.78667 198.258 4.88C198.352 5 198.398 5.16 198.398 5.36V6.6C198.838 5.97333 199.332 5.47333 199.878 5.1C200.425 4.74 200.998 4.56 201.598 4.56ZM212.263 7.12C212.263 7.56 212.17 7.98 211.983 8.38C211.796 8.76667 211.47 9.10667 211.003 9.4C210.523 9.69333 209.883 9.95333 209.083 10.18C208.243 10.4067 207.21 10.58 205.983 10.7V10.82C205.983 12.4333 206.663 13.24 208.023 13.24C208.343 13.24 208.603 13.2133 208.803 13.16C209.096 13.08 209.296 13.0133 209.403 12.96C209.55 12.88 209.703 12.7867 209.863 12.68L210.243 12.42C210.443 12.2867 210.556 12.2133 210.583 12.2C210.69 12.1467 210.816 12.12 210.963 12.12C211.043 12.12 211.123 12.14 211.203 12.18C211.283 12.22 211.35 12.2733 211.403 12.34L212.023 13.1C211.676 13.4467 211.33 13.7533 210.983 14.02C210.61 14.3 210.263 14.5133 209.943 14.66C209.57 14.82 209.196 14.94 208.823 15.02C208.423 15.1 207.996 15.14 207.543 15.14C206.93 15.14 206.383 15.04 205.903 14.84C205.396 14.6267 204.983 14.34 204.663 13.98C204.303 13.6067 204.036 13.16 203.863 12.64C203.663 12.0667 203.563 11.48 203.563 10.88C203.563 10.3467 203.623 9.82 203.743 9.3C203.876 8.74 204.043 8.24667 204.243 7.82C204.443 7.39333 204.716 6.96667 205.063 6.54C205.383 6.14 205.743 5.8 206.143 5.52C206.57 5.22667 207.016 5 207.483 4.84C207.963 4.68 208.476 4.6 209.023 4.6C209.57 4.6 210.043 4.68 210.443 4.84C210.91 5.02667 211.25 5.22 211.463 5.42C211.703 5.63333 211.903 5.90667 212.063 6.24C212.196 6.52 212.263 6.81333 212.263 7.12ZM208.883 6.32C208.536 6.32 208.23 6.38667 207.963 6.52C207.656 6.66667 207.396 6.86 207.183 7.1C206.943 7.34 206.743 7.63333 206.583 7.98C206.423 8.32667 206.29 8.70667 206.183 9.12C207.076 8.98667 207.743 8.86 208.183 8.74C208.69 8.59333 209.076 8.44667 209.343 8.3C209.65 8.12667 209.836 7.96 209.903 7.8C209.983 7.65333 210.023 7.46 210.023 7.22C210.023 7.1 210.003 6.99333 209.963 6.9C209.923 6.80667 209.856 6.71333 209.763 6.62C209.63 6.51333 209.516 6.44 209.423 6.4C209.303 6.34667 209.123 6.32 208.883 6.32ZM221.277 13.46C220.957 13.78 220.623 14.0533 220.277 14.28C219.997 14.4667 219.643 14.64 219.217 14.8C218.883 14.9067 218.517 14.9933 218.117 15.06C217.783 15.1133 217.417 15.14 217.017 15.14C216.363 15.14 215.783 15.0267 215.277 14.8C214.743 14.56 214.297 14.2133 213.937 13.76C213.577 13.2933 213.317 12.74 213.157 12.1C213.063 11.7267 213.017 11.3 213.017 10.82C213.017 10.5 213.037 10.1733 213.077 9.84C213.183 9.05333 213.377 8.36 213.657 7.76C213.963 7.10667 214.35 6.54667 214.817 6.08C215.297 5.6 215.857 5.23333 216.497 4.98C217.177 4.71333 217.91 4.58 218.697 4.58C219.55 4.58 220.597 4.82667 221.837 5.32L221.437 8.48H220.297C220.043 8.48 219.903 8.35333 219.877 8.1L219.897 6.66C219.417 6.52667 218.99 6.46 218.617 6.46C218.177 6.46 217.783 6.54 217.437 6.7C217.063 6.87333 216.763 7.09333 216.537 7.36C216.31 7.61333 216.11 7.97333 215.937 8.44C215.763 8.89333 215.65 9.36 215.597 9.84C215.57 10.1867 215.557 10.4467 215.557 10.62C215.557 10.78 215.57 11.0067 215.597 11.3C215.663 11.7133 215.783 12.0733 215.957 12.38C216.143 12.66 216.383 12.88 216.677 13.04C216.997 13.1867 217.343 13.26 217.717 13.26C218.13 13.26 218.457 13.2133 218.697 13.12C218.95 13.0267 219.163 12.92 219.337 12.8L219.817 12.48C219.95 12.3867 220.097 12.34 220.257 12.34C220.47 12.34 220.61 12.4133 220.677 12.56L221.277 13.46ZM228.367 4.58C229.1 4.58 229.78 4.70667 230.407 4.96C231.007 5.2 231.494 5.54667 231.867 6C232.267 6.48 232.54 7.03333 232.687 7.66C232.794 8.11333 232.847 8.56 232.847 9C232.847 9.25333 232.827 9.53333 232.787 9.84C232.694 10.6267 232.48 11.36 232.147 12.04C231.827 12.7067 231.42 13.2667 230.927 13.72C230.407 14.2 229.834 14.5533 229.207 14.78C228.554 15.02 227.84 15.14 227.067 15.14C226.307 15.14 225.627 15.02 225.027 14.78C224.427 14.54 223.934 14.1867 223.547 13.72C223.16 13.2533 222.887 12.6933 222.727 12.04C222.62 11.5867 222.567 11.14 222.567 10.7C222.567 10.42 222.587 10.1333 222.627 9.84C222.72 9.06667 222.934 8.34 223.267 7.66C223.574 7.03333 223.987 6.48 224.507 6C225 5.54667 225.574 5.2 226.227 4.96C226.92 4.70667 227.634 4.58 228.367 4.58ZM227.307 13.24C228.16 13.24 228.827 12.9533 229.307 12.38C229.774 11.8067 230.08 10.9667 230.227 9.86C230.267 9.54 230.287 9.24 230.287 8.96C230.287 8.29333 230.167 7.75333 229.927 7.34C229.58 6.75333 228.987 6.46 228.147 6.46C227.267 6.46 226.587 6.75333 226.107 7.34C225.64 7.91333 225.334 8.76 225.187 9.88C225.147 10.2 225.127 10.5 225.127 10.78C225.127 11.42 225.247 11.9533 225.487 12.38C225.82 12.9533 226.427 13.24 227.307 13.24ZM249.702 13.2C250.022 13.28 250.162 13.4867 250.122 13.82L249.982 15H246.002L246.802 8.48C246.815 8.37333 246.822 8.23333 246.822 8.06C246.822 7.62 246.728 7.26667 246.542 7C246.302 6.66667 245.908 6.5 245.362 6.5C245.122 6.5 244.875 6.54667 244.622 6.64C244.395 6.72 244.195 6.84 244.022 7C243.848 7.16 243.695 7.36667 243.562 7.62C243.428 7.88667 243.342 8.17333 243.302 8.48L243.062 10.42L242.882 11.9L242.762 13.02L242.502 15H240.022L240.822 8.48C240.848 8.24 240.862 8.06667 240.862 7.96C240.862 7.53333 240.775 7.20667 240.602 6.98C240.362 6.66 239.975 6.5 239.442 6.5C239.082 6.5 238.735 6.58667 238.402 6.76C238.068 6.93333 237.748 7.17333 237.442 7.48L236.962 11.46L236.522 15H234.062L234.562 10.86L235.082 6.72L234.502 6.62C234.435 6.60667 234.375 6.59333 234.322 6.58C234.282 6.56667 234.242 6.56 234.202 6.56L234.082 6.54C233.762 6.46 233.622 6.25333 233.662 5.92L233.802 4.74H236.822C237.142 4.74 237.335 4.89333 237.402 5.2L237.462 5.96C237.688 5.73333 237.902 5.54667 238.102 5.4C238.342 5.22667 238.568 5.08667 238.782 4.98C239.008 4.86 239.262 4.76 239.542 4.68C239.835 4.61333 240.122 4.58 240.402 4.58C241.055 4.58 241.562 4.75333 241.922 5.1C242.308 5.46 242.568 5.92667 242.702 6.5C242.928 6.12667 243.162 5.83333 243.402 5.62C243.615 5.43333 243.902 5.24 244.262 5.04C244.515 4.90667 244.835 4.79333 245.222 4.7C245.568 4.62 245.895 4.58 246.202 4.58C246.788 4.58 247.282 4.66667 247.682 4.84C248.122 5.02667 248.462 5.28 248.702 5.6C248.968 5.94667 249.148 6.35333 249.242 6.82C249.295 7.04667 249.322 7.32 249.322 7.64C249.322 7.89333 249.302 8.17333 249.262 8.48L248.722 13.02L249.282 13.12L249.582 13.18L249.702 13.2ZM267.006 13.2C267.326 13.28 267.466 13.4867 267.426 13.82L267.286 15H263.306L264.106 8.48C264.12 8.37333 264.126 8.23333 264.126 8.06C264.126 7.62 264.033 7.26667 263.846 7C263.606 6.66667 263.213 6.5 262.666 6.5C262.426 6.5 262.18 6.54667 261.926 6.64C261.7 6.72 261.5 6.84 261.326 7C261.153 7.16 261 7.36667 260.866 7.62C260.733 7.88667 260.646 8.17333 260.606 8.48L260.366 10.42L260.186 11.9L260.066 13.02L259.806 15H257.326L258.126 8.48C258.153 8.24 258.166 8.06667 258.166 7.96C258.166 7.53333 258.08 7.20667 257.906 6.98C257.666 6.66 257.28 6.5 256.746 6.5C256.386 6.5 256.04 6.58667 255.706 6.76C255.373 6.93333 255.053 7.17333 254.746 7.48L254.266 11.46L253.826 15H251.366L251.866 10.86L252.386 6.72L251.806 6.62C251.74 6.60667 251.68 6.59333 251.626 6.58C251.586 6.56667 251.546 6.56 251.506 6.56L251.386 6.54C251.066 6.46 250.926 6.25333 250.966 5.92L251.106 4.74H254.126C254.446 4.74 254.64 4.89333 254.706 5.2L254.766 5.96C254.993 5.73333 255.206 5.54667 255.406 5.4C255.646 5.22667 255.873 5.08667 256.086 4.98C256.313 4.86 256.566 4.76 256.846 4.68C257.14 4.61333 257.426 4.58 257.706 4.58C258.36 4.58 258.866 4.75333 259.226 5.1C259.613 5.46 259.873 5.92667 260.006 6.5C260.233 6.12667 260.466 5.83333 260.706 5.62C260.92 5.43333 261.206 5.24 261.566 5.04C261.82 4.90667 262.14 4.79333 262.526 4.7C262.873 4.62 263.2 4.58 263.506 4.58C264.093 4.58 264.586 4.66667 264.986 4.84C265.426 5.02667 265.766 5.28 266.006 5.6C266.273 5.94667 266.453 6.35333 266.546 6.82C266.6 7.04667 266.626 7.32 266.626 7.64C266.626 7.89333 266.606 8.17333 266.566 8.48L266.026 13.02L266.586 13.12L266.886 13.18L267.006 13.2ZM276.931 7.12C276.931 7.56 276.838 7.98 276.651 8.38C276.464 8.76667 276.138 9.10667 275.671 9.4C275.191 9.69333 274.551 9.95333 273.751 10.18C272.911 10.4067 271.878 10.58 270.651 10.7V10.82C270.651 12.4333 271.331 13.24 272.691 13.24C273.011 13.24 273.271 13.2133 273.471 13.16C273.764 13.08 273.964 13.0133 274.071 12.96C274.218 12.88 274.371 12.7867 274.531 12.68L274.911 12.42C275.111 12.2867 275.224 12.2133 275.251 12.2C275.358 12.1467 275.484 12.12 275.631 12.12C275.711 12.12 275.791 12.14 275.871 12.18C275.951 12.22 276.018 12.2733 276.071 12.34L276.691 13.1C276.344 13.4467 275.998 13.7533 275.651 14.02C275.278 14.3 274.931 14.5133 274.611 14.66C274.238 14.82 273.864 14.94 273.491 15.02C273.091 15.1 272.664 15.14 272.211 15.14C271.598 15.14 271.051 15.04 270.571 14.84C270.064 14.6267 269.651 14.34 269.331 13.98C268.971 13.6067 268.704 13.16 268.531 12.64C268.331 12.0667 268.231 11.48 268.231 10.88C268.231 10.3467 268.291 9.82 268.411 9.3C268.544 8.74 268.711 8.24667 268.911 7.82C269.111 7.39333 269.384 6.96667 269.731 6.54C270.051 6.14 270.411 5.8 270.811 5.52C271.238 5.22667 271.684 5 272.151 4.84C272.631 4.68 273.144 4.6 273.691 4.6C274.238 4.6 274.711 4.68 275.111 4.84C275.578 5.02667 275.918 5.22 276.131 5.42C276.371 5.63333 276.571 5.90667 276.731 6.24C276.864 6.52 276.931 6.81333 276.931 7.12ZM273.551 6.32C273.204 6.32 272.898 6.38667 272.631 6.52C272.324 6.66667 272.064 6.86 271.851 7.1C271.611 7.34 271.411 7.63333 271.251 7.98C271.091 8.32667 270.958 8.70667 270.851 9.12C271.744 8.98667 272.411 8.86 272.851 8.74C273.358 8.59333 273.744 8.44667 274.011 8.3C274.318 8.12667 274.504 7.96 274.571 7.8C274.651 7.65333 274.691 7.46 274.691 7.22C274.691 7.1 274.671 6.99333 274.631 6.9C274.591 6.80667 274.524 6.71333 274.431 6.62C274.298 6.51333 274.184 6.44 274.091 6.4C273.971 6.34667 273.791 6.32 273.551 6.32ZM288.285 13.2C288.605 13.28 288.745 13.4867 288.705 13.82L288.565 15H284.565L285.365 8.48C285.391 8.26667 285.405 8.12 285.405 8.04C285.405 7.62667 285.311 7.28667 285.125 7.02C284.885 6.67333 284.471 6.5 283.885 6.5C283.458 6.5 283.045 6.6 282.645 6.8C282.205 7.01333 281.818 7.27333 281.485 7.58L281.085 10.84L281.025 11.32L280.825 13.02L280.565 15H278.105L278.465 12.02L279.125 6.72L278.545 6.62C278.478 6.60667 278.418 6.59333 278.365 6.58C278.325 6.56667 278.285 6.56 278.245 6.56L278.125 6.54C277.805 6.46 277.665 6.25333 277.705 5.92L277.845 4.74H280.865C281.185 4.74 281.378 4.89333 281.445 5.2L281.525 6C281.765 5.77333 282.005 5.58 282.245 5.42C282.511 5.23333 282.771 5.08667 283.025 4.98C283.398 4.82 283.685 4.72 283.885 4.68C284.218 4.61333 284.545 4.58 284.865 4.58C285.451 4.58 285.938 4.67333 286.325 4.86C286.725 5.04667 287.051 5.31333 287.305 5.66C287.531 5.98 287.698 6.39333 287.805 6.9C287.858 7.15333 287.885 7.44667 287.885 7.78C287.885 8.08667 287.871 8.32 287.845 8.48L287.285 13.02L287.865 13.12L288.145 13.18C288.185 13.1933 288.231 13.2 288.285 13.2ZM296.881 14.96C296.721 14.96 296.588 14.92 296.481 14.84C296.374 14.76 296.314 14.6467 296.301 14.5L296.221 13.56C295.768 14.0267 295.248 14.4067 294.661 14.7C294.088 14.9933 293.441 15.14 292.721 15.14C292.134 15.14 291.634 15.0267 291.221 14.8C290.781 14.56 290.421 14.22 290.141 13.78C289.861 13.3267 289.668 12.78 289.561 12.14C289.508 11.6867 289.481 11.3333 289.481 11.08C289.481 10.8533 289.508 10.46 289.561 9.9C289.654 9.16667 289.848 8.46 290.141 7.78C290.408 7.15333 290.774 6.58667 291.241 6.08C291.668 5.61333 292.174 5.24 292.761 4.96C293.348 4.68 293.974 4.54 294.641 4.54C295.201 4.54 295.681 4.63333 296.081 4.82C296.508 5.02 296.841 5.26 297.081 5.54L297.501 2.12L296.921 2.02L296.621 1.96L296.501 1.94C296.181 1.86 296.041 1.65333 296.081 1.32L296.221 0.139999H300.201L298.621 13L299.121 13.08L299.381 13.14L299.501 13.16C299.821 13.24 299.961 13.4467 299.921 13.78L299.781 14.96H296.881ZM296.861 7.36C296.621 7.01333 296.341 6.77333 296.021 6.64C295.688 6.49333 295.341 6.42 294.981 6.42C294.621 6.42 294.274 6.49333 293.941 6.64C293.634 6.77333 293.354 6.98667 293.101 7.28C292.834 7.58667 292.628 7.94667 292.481 8.36C292.321 8.81333 292.201 9.32667 292.121 9.9C292.081 10.26 292.061 10.58 292.061 10.86C292.061 11.1267 292.068 11.32 292.081 11.44C292.121 11.8267 292.214 12.16 292.361 12.44C292.494 12.6933 292.694 12.8867 292.961 13.02C293.201 13.14 293.481 13.2 293.801 13.2C294.321 13.2 294.774 13.0933 295.161 12.88C295.561 12.64 295.934 12.3333 296.281 11.96L296.861 7.36ZM310.086 13.18C310.42 13.26 310.566 13.4667 310.526 13.8L310.366 14.98H307.826C307.52 14.98 307.306 14.9133 307.186 14.78C307.066 14.6333 307.006 14.4533 307.006 14.24L307.086 12.84C306.593 13.5867 306.086 14.1467 305.566 14.52C305.02 14.9333 304.393 15.14 303.686 15.14C303.313 15.14 302.953 15.06 302.606 14.9C302.246 14.7267 301.953 14.5 301.726 14.22C301.486 13.94 301.293 13.56 301.146 13.08C301 12.6 300.926 12.0667 300.926 11.48C300.926 10.8533 301.006 10.2533 301.166 9.68C301.353 9.02667 301.566 8.48 301.806 8.04C302.1 7.50667 302.44 7.04 302.826 6.64C303.253 6.2 303.706 5.83333 304.186 5.54C304.76 5.19333 305.293 4.95333 305.786 4.82C306.373 4.66 306.98 4.58 307.606 4.58C308.033 4.58 308.5 4.61333 309.006 4.68C309.473 4.74667 309.926 4.86667 310.366 5.04L309.366 13.06L309.386 13.04L309.886 13.14L310.086 13.18ZM307.766 6.36C307.526 6.33333 307.36 6.32 307.266 6.32C306.706 6.32 306.193 6.44667 305.726 6.7C305.26 6.95333 304.853 7.29333 304.506 7.72C304.146 8.18667 303.873 8.68667 303.686 9.22C303.5 9.74 303.406 10.3467 303.406 11.04C303.406 11.76 303.513 12.2867 303.726 12.62C303.94 12.9533 304.253 13.12 304.666 13.12C304.933 13.12 305.2 13.0267 305.466 12.84C305.72 12.6667 305.966 12.4067 306.206 12.06C306.46 11.7133 306.68 11.3267 306.866 10.9C307.08 10.42 307.253 9.94 307.386 9.46L307.766 6.36ZM314.518 15.16C313.638 15.16 312.984 14.9067 312.558 14.4C312.224 14.0133 312.058 13.48 312.058 12.8C312.058 12.5867 312.064 12.4267 312.078 12.32L312.798 6.6H311.758C311.624 6.6 311.511 6.55333 311.418 6.46C311.338 6.38 311.304 6.25333 311.318 6.08L311.438 5.08L313.118 4.82L313.998 2.02C314.024 1.91333 314.098 1.81333 314.218 1.72C314.324 1.64 314.451 1.6 314.598 1.6H315.878L315.478 4.84H318.178L317.958 6.6H315.258L314.578 12.16L314.558 12.38C314.558 12.58 314.611 12.7533 314.718 12.9C314.851 13.0733 315.058 13.16 315.338 13.16C315.524 13.16 315.651 13.1467 315.718 13.12L316.018 13L316.217 12.88C316.258 12.8533 316.324 12.84 316.418 12.84C316.498 12.84 316.551 12.8533 316.578 12.88C316.658 12.96 316.704 13.0133 316.718 13.04L317.318 14.24C316.944 14.52 316.498 14.7467 315.978 14.92C315.498 15.08 315.011 15.16 314.518 15.16ZM323.815 1.6C323.815 1.86667 323.748 2.12 323.615 2.36C323.535 2.50667 323.395 2.66667 323.195 2.84C323.021 2.98667 322.841 3.1 322.655 3.18C322.455 3.26 322.241 3.3 322.015 3.3C321.815 3.3 321.621 3.26 321.435 3.18C321.248 3.1 321.095 2.98667 320.975 2.84C320.841 2.69333 320.748 2.53333 320.695 2.36C320.641 2.21333 320.628 2.01333 320.655 1.76C320.668 1.56 320.735 1.34667 320.855 1.12C320.935 0.96 321.068 0.799999 321.255 0.639999C321.441 0.479999 321.615 0.366666 321.775 0.3C322.001 0.206666 322.208 0.159999 322.395 0.159999C322.595 0.159999 322.801 0.206666 323.015 0.3C323.201 0.379999 323.355 0.493333 323.475 0.639999C323.608 0.799999 323.701 0.96 323.755 1.12C323.795 1.25333 323.815 1.41333 323.815 1.6ZM323.055 13.2C323.375 13.28 323.515 13.4867 323.475 13.82L323.335 15H319.335L319.595 13.02L320.355 6.72L319.775 6.62L319.495 6.56L319.375 6.54C319.041 6.46 318.895 6.25333 318.935 5.92L319.095 4.74H323.075L322.055 13.02L322.635 13.12L322.915 13.18C322.955 13.1933 323.001 13.2 323.055 13.2ZM330.359 4.58C331.093 4.58 331.773 4.70667 332.399 4.96C332.999 5.2 333.486 5.54667 333.859 6C334.259 6.48 334.533 7.03333 334.679 7.66C334.786 8.11333 334.839 8.56 334.839 9C334.839 9.25333 334.819 9.53333 334.779 9.84C334.686 10.6267 334.473 11.36 334.139 12.04C333.819 12.7067 333.413 13.2667 332.919 13.72C332.399 14.2 331.826 14.5533 331.199 14.78C330.546 15.02 329.833 15.14 329.059 15.14C328.299 15.14 327.619 15.02 327.019 14.78C326.419 14.54 325.926 14.1867 325.539 13.72C325.153 13.2533 324.879 12.6933 324.719 12.04C324.613 11.5867 324.559 11.14 324.559 10.7C324.559 10.42 324.579 10.1333 324.619 9.84C324.713 9.06667 324.926 8.34 325.259 7.66C325.566 7.03333 325.979 6.48 326.499 6C326.993 5.54667 327.566 5.2 328.219 4.96C328.913 4.70667 329.626 4.58 330.359 4.58ZM329.299 13.24C330.153 13.24 330.819 12.9533 331.299 12.38C331.766 11.8067 332.073 10.9667 332.219 9.86C332.259 9.54 332.279 9.24 332.279 8.96C332.279 8.29333 332.159 7.75333 331.919 7.34C331.573 6.75333 330.979 6.46 330.139 6.46C329.259 6.46 328.579 6.75333 328.099 7.34C327.633 7.91333 327.326 8.76 327.179 9.88C327.139 10.2 327.119 10.5 327.119 10.78C327.119 11.42 327.239 11.9533 327.479 12.38C327.813 12.9533 328.419 13.24 329.299 13.24ZM346.234 13.2C346.554 13.28 346.694 13.4867 346.654 13.82L346.514 15H342.514L343.314 8.48C343.341 8.26667 343.354 8.12 343.354 8.04C343.354 7.62667 343.261 7.28667 343.074 7.02C342.834 6.67333 342.421 6.5 341.834 6.5C341.407 6.5 340.994 6.6 340.594 6.8C340.154 7.01333 339.767 7.27333 339.434 7.58L339.034 10.84L338.974 11.32L338.774 13.02L338.514 15H336.054L336.414 12.02L337.074 6.72L336.494 6.62C336.427 6.60667 336.367 6.59333 336.314 6.58C336.274 6.56667 336.234 6.56 336.194 6.56L336.074 6.54C335.754 6.46 335.614 6.25333 335.654 5.92L335.794 4.74H338.814C339.134 4.74 339.327 4.89333 339.394 5.2L339.474 6C339.714 5.77333 339.954 5.58 340.194 5.42C340.461 5.23333 340.721 5.08667 340.974 4.98C341.347 4.82 341.634 4.72 341.834 4.68C342.167 4.61333 342.494 4.58 342.814 4.58C343.401 4.58 343.887 4.67333 344.274 4.86C344.674 5.04667 345.001 5.31333 345.254 5.66C345.481 5.98 345.647 6.39333 345.754 6.9C345.807 7.15333 345.834 7.44667 345.834 7.78C345.834 8.08667 345.821 8.32 345.794 8.48L345.234 13.02L345.814 13.12L346.094 13.18C346.134 13.1933 346.181 13.2 346.234 13.2ZM355.07 10.68C355.15 10.8933 355.19 11.14 355.19 11.42C355.19 12.02 355.037 12.5867 354.73 13.12C354.49 13.5467 354.184 13.9067 353.81 14.2C353.41 14.5067 352.95 14.74 352.43 14.9C351.91 15.0733 351.317 15.16 350.65 15.16C350.05 15.16 349.464 15.1067 348.89 15C348.33 14.8933 347.857 14.76 347.47 14.6L347.59 13.6L347.81 11.7H348.97C349.224 11.7 349.364 11.8267 349.39 12.08L349.37 13.26C349.717 13.3667 350.25 13.42 350.97 13.42C351.25 13.42 351.51 13.3867 351.75 13.32C351.964 13.24 352.144 13.1467 352.29 13.04C352.477 12.9067 352.597 12.78 352.65 12.66C352.717 12.5133 352.764 12.3533 352.79 12.18V12.06C352.79 11.8867 352.744 11.7333 352.65 11.6C352.557 11.4667 352.384 11.3333 352.13 11.2C351.904 11.0667 351.65 10.9667 351.37 10.9L350.47 10.6C350.23 10.52 349.937 10.3933 349.59 10.22C349.284 10.0733 349.037 9.89333 348.85 9.68C348.61 9.42667 348.45 9.16 348.37 8.88C348.304 8.64 348.27 8.39333 348.27 8.14C348.27 7.95333 348.277 7.81333 348.29 7.72C348.357 7.26667 348.49 6.86667 348.69 6.52C348.917 6.12 349.204 5.78667 349.55 5.52C349.937 5.22667 350.37 5 350.85 4.84C351.397 4.66667 351.964 4.58 352.55 4.58C353.07 4.58 353.517 4.61333 353.89 4.68C354.277 4.74667 354.804 4.89333 355.47 5.12L355.11 8.02H353.95C353.697 8.02 353.557 7.89333 353.53 7.64L353.55 6.52C353.27 6.42667 352.877 6.38 352.37 6.38C351.877 6.38 351.484 6.48 351.19 6.68C350.884 6.88 350.71 7.15333 350.67 7.5V7.6C350.67 7.77333 350.717 7.92667 350.81 8.06C350.89 8.16667 351.064 8.29333 351.33 8.44C351.597 8.58667 351.85 8.69333 352.09 8.76L352.99 9.04C353.19 9.10667 353.477 9.23333 353.85 9.42C354.144 9.56667 354.39 9.74 354.59 9.94C354.817 10.14 354.977 10.3867 355.07 10.68ZM367.968 0.3C368.435 0.3 368.868 0.36 369.268 0.48L369.048 1.72C369.008 1.92 368.908 2.04 368.748 2.08C368.508 2.13333 368.308 2.16 368.148 2.16C367.828 2.16 367.562 2.18667 367.348 2.24C367.122 2.29333 366.915 2.40667 366.728 2.58C366.555 2.74 366.408 2.94667 366.288 3.2C366.168 3.46667 366.088 3.78 366.048 4.14L365.968 4.82H368.628L368.428 6.58H365.828L365.808 6.6L365.588 8.4L364.828 14.58C364.748 15.26 364.582 15.8667 364.328 16.4C364.035 16.96 363.695 17.38 363.308 17.66C362.855 17.9933 362.335 18.2333 361.748 18.38C361.175 18.5267 360.455 18.6 359.588 18.6V17.32C359.588 16.8133 359.848 16.56 360.368 16.56C360.648 16.56 360.895 16.52 361.108 16.44C361.348 16.3467 361.548 16.2333 361.708 16.1C361.868 15.9533 362.015 15.74 362.148 15.46C362.268 15.1933 362.348 14.88 362.388 14.52L363.148 8.4V8.36L363.208 7.76L363.368 6.6L362.488 6.46C362.288 6.42 362.142 6.35333 362.048 6.26C361.955 6.15333 361.915 6.01333 361.928 5.84L362.048 4.82H363.568L363.668 4.06C363.762 3.43333 363.915 2.90667 364.128 2.48C364.395 1.97333 364.695 1.58 365.028 1.3C365.402 0.979999 365.835 0.733332 366.328 0.559999C366.808 0.386666 367.355 0.3 367.968 0.3ZM375.711 4.58C376.444 4.58 377.124 4.70667 377.751 4.96C378.351 5.2 378.837 5.54667 379.211 6C379.611 6.48 379.884 7.03333 380.031 7.66C380.137 8.11333 380.191 8.56 380.191 9C380.191 9.25333 380.171 9.53333 380.131 9.84C380.037 10.6267 379.824 11.36 379.491 12.04C379.171 12.7067 378.764 13.2667 378.271 13.72C377.751 14.2 377.177 14.5533 376.551 14.78C375.897 15.02 375.184 15.14 374.411 15.14C373.651 15.14 372.971 15.02 372.371 14.78C371.771 14.54 371.277 14.1867 370.891 13.72C370.504 13.2533 370.231 12.6933 370.071 12.04C369.964 11.5867 369.911 11.14 369.911 10.7C369.911 10.42 369.931 10.1333 369.971 9.84C370.064 9.06667 370.277 8.34 370.611 7.66C370.917 7.03333 371.331 6.48 371.851 6C372.344 5.54667 372.917 5.2 373.571 4.96C374.264 4.70667 374.977 4.58 375.711 4.58ZM374.651 13.24C375.504 13.24 376.171 12.9533 376.651 12.38C377.117 11.8067 377.424 10.9667 377.571 9.86C377.611 9.54 377.631 9.24 377.631 8.96C377.631 8.29333 377.511 7.75333 377.271 7.34C376.924 6.75333 376.331 6.46 375.491 6.46C374.611 6.46 373.931 6.75333 373.451 7.34C372.984 7.91333 372.677 8.76 372.531 9.88C372.491 10.2 372.471 10.5 372.471 10.78C372.471 11.42 372.591 11.9533 372.831 12.38C373.164 12.9533 373.771 13.24 374.651 13.24ZM387.965 4.56C388.499 4.56 388.905 4.67333 389.185 4.9L388.645 6.76C388.605 6.88 388.545 6.96 388.465 7C388.399 7.05333 388.305 7.08 388.185 7.08C388.079 7.08 387.945 7.06 387.785 7.02C387.572 6.96667 387.345 6.94 387.105 6.94C386.599 6.94 386.145 7.08 385.745 7.36C385.372 7.62667 385.012 8.04667 384.665 8.62L384.225 12.18L383.865 15H381.405L381.645 13.02L381.785 11.84L381.885 11.14L382.425 6.72L381.425 6.54C381.105 6.46 380.965 6.25333 381.005 5.92L381.145 4.74H384.105C384.372 4.74 384.545 4.78667 384.625 4.88C384.719 5 384.765 5.16 384.765 5.36V6.6C385.205 5.97333 385.699 5.47333 386.245 5.1C386.792 4.74 387.365 4.56 387.965 4.56ZM402.839 13.46C402.519 13.78 402.186 14.0533 401.839 14.28C401.559 14.4667 401.206 14.64 400.779 14.8C400.446 14.9067 400.079 14.9933 399.679 15.06C399.346 15.1133 398.979 15.14 398.579 15.14C397.926 15.14 397.346 15.0267 396.839 14.8C396.306 14.56 395.859 14.2133 395.499 13.76C395.139 13.2933 394.879 12.74 394.719 12.1C394.626 11.7267 394.579 11.3 394.579 10.82C394.579 10.5 394.599 10.1733 394.639 9.84C394.746 9.05333 394.939 8.36 395.219 7.76C395.526 7.10667 395.913 6.54667 396.379 6.08C396.859 5.6 397.419 5.23333 398.059 4.98C398.739 4.71333 399.473 4.58 400.259 4.58C401.113 4.58 402.159 4.82667 403.399 5.32L402.999 8.48H401.859C401.606 8.48 401.466 8.35333 401.439 8.1L401.459 6.66C400.979 6.52667 400.553 6.46 400.179 6.46C399.739 6.46 399.346 6.54 398.999 6.7C398.626 6.87333 398.326 7.09333 398.099 7.36C397.873 7.61333 397.673 7.97333 397.499 8.44C397.326 8.89333 397.213 9.36 397.159 9.84C397.133 10.1867 397.119 10.4467 397.119 10.62C397.119 10.78 397.133 11.0067 397.159 11.3C397.226 11.7133 397.346 12.0733 397.519 12.38C397.706 12.66 397.946 12.88 398.239 13.04C398.559 13.1867 398.906 13.26 399.279 13.26C399.693 13.26 400.019 13.2133 400.259 13.12C400.513 13.0267 400.726 12.92 400.899 12.8L401.379 12.48C401.513 12.3867 401.659 12.34 401.819 12.34C402.033 12.34 402.173 12.4133 402.239 12.56L402.839 13.46ZM409.93 4.58C410.663 4.58 411.343 4.70667 411.97 4.96C412.57 5.2 413.056 5.54667 413.43 6C413.83 6.48 414.103 7.03333 414.25 7.66C414.356 8.11333 414.41 8.56 414.41 9C414.41 9.25333 414.39 9.53333 414.35 9.84C414.256 10.6267 414.043 11.36 413.71 12.04C413.39 12.7067 412.983 13.2667 412.49 13.72C411.97 14.2 411.396 14.5533 410.77 14.78C410.116 15.02 409.403 15.14 408.63 15.14C407.87 15.14 407.19 15.02 406.59 14.78C405.99 14.54 405.496 14.1867 405.11 13.72C404.723 13.2533 404.45 12.6933 404.29 12.04C404.183 11.5867 404.13 11.14 404.13 10.7C404.13 10.42 404.15 10.1333 404.19 9.84C404.283 9.06667 404.496 8.34 404.83 7.66C405.136 7.03333 405.55 6.48 406.07 6C406.563 5.54667 407.136 5.2 407.79 4.96C408.483 4.70667 409.196 4.58 409.93 4.58ZM408.87 13.24C409.723 13.24 410.39 12.9533 410.87 12.38C411.336 11.8067 411.643 10.9667 411.79 9.86C411.83 9.54 411.85 9.24 411.85 8.96C411.85 8.29333 411.73 7.75333 411.49 7.34C411.143 6.75333 410.55 6.46 409.71 6.46C408.83 6.46 408.15 6.75333 407.67 7.34C407.203 7.91333 406.896 8.76 406.75 9.88C406.71 10.2 406.69 10.5 406.69 10.78C406.69 11.42 406.81 11.9533 407.05 12.38C407.383 12.9533 407.99 13.24 408.87 13.24ZM425.804 13.2C426.124 13.28 426.264 13.4867 426.224 13.82L426.084 15H423.044C422.738 15 422.551 14.8467 422.484 14.54L422.404 13.72C422.164 13.9467 421.924 14.1467 421.684 14.32C421.471 14.48 421.211 14.6267 420.904 14.76C420.638 14.88 420.344 14.98 420.024 15.06C419.691 15.1267 419.371 15.16 419.064 15.16C418.504 15.16 418.018 15.0667 417.604 14.88C417.244 14.72 416.918 14.4467 416.624 14.06C416.384 13.74 416.211 13.3333 416.104 12.84C416.051 12.6133 416.024 12.3467 416.024 12.04C416.024 11.8 416.044 11.54 416.084 11.26L416.644 6.72L415.644 6.54C415.324 6.46 415.184 6.25333 415.224 5.92L415.364 4.74H419.344L418.544 11.26C418.531 11.3533 418.524 11.4867 418.524 11.66C418.524 12.1 418.618 12.4533 418.804 12.72C419.044 13.0533 419.458 13.22 420.044 13.22C420.458 13.22 420.871 13.1267 421.284 12.94C421.671 12.7667 422.058 12.5067 422.444 12.16L423.104 6.72C422.731 6.65333 422.484 6.60667 422.364 6.58C422.258 6.55333 422.178 6.54 422.124 6.54C421.791 6.46 421.644 6.25333 421.684 5.92L421.844 4.74H425.824L424.804 13.02L425.804 13.2ZM437.621 13.2C437.941 13.28 438.081 13.4867 438.041 13.82L437.901 15H433.901L434.701 8.48C434.727 8.26667 434.741 8.12 434.741 8.04C434.741 7.62667 434.647 7.28667 434.461 7.02C434.221 6.67333 433.807 6.5 433.221 6.5C432.794 6.5 432.381 6.6 431.981 6.8C431.541 7.01333 431.154 7.27333 430.821 7.58L430.421 10.84L430.361 11.32L430.161 13.02L429.901 15H427.441L427.801 12.02L428.461 6.72L427.881 6.62C427.814 6.60667 427.754 6.59333 427.701 6.58C427.661 6.56667 427.621 6.56 427.581 6.56L427.461 6.54C427.141 6.46 427.001 6.25333 427.041 5.92L427.181 4.74H430.201C430.521 4.74 430.714 4.89333 430.781 5.2L430.861 6C431.101 5.77333 431.341 5.58 431.581 5.42C431.847 5.23333 432.107 5.08667 432.361 4.98C432.734 4.82 433.021 4.72 433.221 4.68C433.554 4.61333 433.881 4.58 434.201 4.58C434.787 4.58 435.274 4.67333 435.661 4.86C436.061 5.04667 436.387 5.31333 436.641 5.66C436.867 5.98 437.034 6.39333 437.141 6.9C437.194 7.15333 437.221 7.44667 437.221 7.78C437.221 8.08667 437.207 8.32 437.181 8.48L436.621 13.02L437.201 13.12L437.481 13.18C437.521 13.1933 437.567 13.2 437.621 13.2ZM442.037 15.16C441.157 15.16 440.504 14.9067 440.077 14.4C439.744 14.0133 439.577 13.48 439.577 12.8C439.577 12.5867 439.584 12.4267 439.597 12.32L440.317 6.6H439.277C439.144 6.6 439.03 6.55333 438.937 6.46C438.857 6.38 438.824 6.25333 438.837 6.08L438.957 5.08L440.637 4.82L441.517 2.02C441.544 1.91333 441.617 1.81333 441.737 1.72C441.844 1.64 441.97 1.6 442.117 1.6H443.397L442.997 4.84H445.697L445.477 6.6H442.777L442.097 12.16L442.077 12.38C442.077 12.58 442.13 12.7533 442.237 12.9C442.37 13.0733 442.577 13.16 442.857 13.16C443.044 13.16 443.17 13.1467 443.237 13.12L443.537 13L443.737 12.88C443.777 12.8533 443.844 12.84 443.937 12.84C444.017 12.84 444.07 12.8533 444.097 12.88C444.177 12.96 444.224 13.0133 444.237 13.04L444.837 14.24C444.464 14.52 444.017 14.7467 443.497 14.92C443.017 15.08 442.53 15.16 442.037 15.16ZM453.434 4.56C453.968 4.56 454.374 4.67333 454.654 4.9L454.114 6.76C454.074 6.88 454.014 6.96 453.934 7C453.868 7.05333 453.774 7.08 453.654 7.08C453.548 7.08 453.414 7.06 453.254 7.02C453.041 6.96667 452.814 6.94 452.574 6.94C452.068 6.94 451.614 7.08 451.214 7.36C450.841 7.62667 450.481 8.04667 450.134 8.62L449.694 12.18L449.334 15H446.874L447.114 13.02L447.254 11.84L447.354 11.14L447.894 6.72L446.894 6.54C446.574 6.46 446.434 6.25333 446.474 5.92L446.614 4.74H449.574C449.841 4.74 450.014 4.78667 450.094 4.88C450.188 5 450.234 5.16 450.234 5.36V6.6C450.674 5.97333 451.168 5.47333 451.714 5.1C452.261 4.74 452.834 4.56 453.434 4.56ZM460.299 1.6C460.299 1.86667 460.232 2.12 460.099 2.36C460.019 2.50667 459.879 2.66667 459.679 2.84C459.506 2.98667 459.326 3.1 459.139 3.18C458.939 3.26 458.726 3.3 458.499 3.3C458.299 3.3 458.106 3.26 457.919 3.18C457.732 3.1 457.579 2.98667 457.459 2.84C457.326 2.69333 457.232 2.53333 457.179 2.36C457.126 2.21333 457.112 2.01333 457.139 1.76C457.152 1.56 457.219 1.34667 457.339 1.12C457.419 0.96 457.552 0.799999 457.739 0.639999C457.926 0.479999 458.099 0.366666 458.259 0.3C458.486 0.206666 458.692 0.159999 458.879 0.159999C459.079 0.159999 459.286 0.206666 459.499 0.3C459.686 0.379999 459.839 0.493333 459.959 0.639999C460.092 0.799999 460.186 0.96 460.239 1.12C460.279 1.25333 460.299 1.41333 460.299 1.6ZM459.539 13.2C459.859 13.28 459.999 13.4867 459.959 13.82L459.819 15H455.819L456.079 13.02L456.839 6.72L456.259 6.62L455.979 6.56L455.859 6.54C455.526 6.46 455.379 6.25333 455.419 5.92L455.579 4.74H459.559L458.539 13.02L459.119 13.12L459.399 13.18C459.439 13.1933 459.486 13.2 459.539 13.2ZM469.744 7.12C469.744 7.56 469.65 7.98 469.464 8.38C469.277 8.76667 468.95 9.10667 468.484 9.4C468.004 9.69333 467.364 9.95333 466.564 10.18C465.724 10.4067 464.69 10.58 463.464 10.7V10.82C463.464 12.4333 464.144 13.24 465.504 13.24C465.824 13.24 466.084 13.2133 466.284 13.16C466.577 13.08 466.777 13.0133 466.884 12.96C467.03 12.88 467.184 12.7867 467.344 12.68L467.724 12.42C467.924 12.2867 468.037 12.2133 468.064 12.2C468.17 12.1467 468.297 12.12 468.444 12.12C468.524 12.12 468.604 12.14 468.684 12.18C468.764 12.22 468.83 12.2733 468.884 12.34L469.504 13.1C469.157 13.4467 468.81 13.7533 468.464 14.02C468.09 14.3 467.744 14.5133 467.424 14.66C467.05 14.82 466.677 14.94 466.304 15.02C465.904 15.1 465.477 15.14 465.024 15.14C464.41 15.14 463.864 15.04 463.384 14.84C462.877 14.6267 462.464 14.34 462.144 13.98C461.784 13.6067 461.517 13.16 461.344 12.64C461.144 12.0667 461.044 11.48 461.044 10.88C461.044 10.3467 461.104 9.82 461.224 9.3C461.357 8.74 461.524 8.24667 461.724 7.82C461.924 7.39333 462.197 6.96667 462.544 6.54C462.864 6.14 463.224 5.8 463.624 5.52C464.05 5.22667 464.497 5 464.964 4.84C465.444 4.68 465.957 4.6 466.504 4.6C467.05 4.6 467.524 4.68 467.924 4.84C468.39 5.02667 468.73 5.22 468.944 5.42C469.184 5.63333 469.384 5.90667 469.544 6.24C469.677 6.52 469.744 6.81333 469.744 7.12ZM466.364 6.32C466.017 6.32 465.71 6.38667 465.444 6.52C465.137 6.66667 464.877 6.86 464.664 7.1C464.424 7.34 464.224 7.63333 464.064 7.98C463.904 8.32667 463.77 8.70667 463.664 9.12C464.557 8.98667 465.224 8.86 465.664 8.74C466.17 8.59333 466.557 8.44667 466.824 8.3C467.13 8.12667 467.317 7.96 467.384 7.8C467.464 7.65333 467.504 7.46 467.504 7.22C467.504 7.1 467.484 6.99333 467.444 6.9C467.404 6.80667 467.337 6.71333 467.244 6.62C467.11 6.51333 466.997 6.44 466.904 6.4C466.784 6.34667 466.604 6.32 466.364 6.32ZM478.117 10.68C478.197 10.8933 478.237 11.14 478.237 11.42C478.237 12.02 478.084 12.5867 477.777 13.12C477.537 13.5467 477.231 13.9067 476.857 14.2C476.457 14.5067 475.997 14.74 475.477 14.9C474.957 15.0733 474.364 15.16 473.697 15.16C473.097 15.16 472.511 15.1067 471.937 15C471.377 14.8933 470.904 14.76 470.517 14.6L470.637 13.6L470.857 11.7H472.017C472.271 11.7 472.411 11.8267 472.437 12.08L472.417 13.26C472.764 13.3667 473.297 13.42 474.017 13.42C474.297 13.42 474.557 13.3867 474.797 13.32C475.011 13.24 475.191 13.1467 475.337 13.04C475.524 12.9067 475.644 12.78 475.697 12.66C475.764 12.5133 475.811 12.3533 475.837 12.18V12.06C475.837 11.8867 475.791 11.7333 475.697 11.6C475.604 11.4667 475.431 11.3333 475.177 11.2C474.951 11.0667 474.697 10.9667 474.417 10.9L473.517 10.6C473.277 10.52 472.984 10.3933 472.637 10.22C472.331 10.0733 472.084 9.89333 471.897 9.68C471.657 9.42667 471.497 9.16 471.417 8.88C471.351 8.64 471.317 8.39333 471.317 8.14C471.317 7.95333 471.324 7.81333 471.337 7.72C471.404 7.26667 471.537 6.86667 471.737 6.52C471.964 6.12 472.251 5.78667 472.597 5.52C472.984 5.22667 473.417 5 473.897 4.84C474.444 4.66667 475.011 4.58 475.597 4.58C476.117 4.58 476.564 4.61333 476.937 4.68C477.324 4.74667 477.851 4.89333 478.517 5.12L478.157 8.02H476.997C476.744 8.02 476.604 7.89333 476.577 7.64L476.597 6.52C476.317 6.42667 475.924 6.38 475.417 6.38C474.924 6.38 474.531 6.48 474.237 6.68C473.931 6.88 473.757 7.15333 473.717 7.5V7.6C473.717 7.77333 473.764 7.92667 473.857 8.06C473.937 8.16667 474.111 8.29333 474.377 8.44C474.644 8.58667 474.897 8.69333 475.137 8.76L476.037 9.04C476.237 9.10667 476.524 9.23333 476.897 9.42C477.191 9.56667 477.437 9.74 477.637 9.94C477.864 10.14 478.024 10.3867 478.117 10.68ZM479.766 13.48C479.793 13.2667 479.846 13.0933 479.926 12.96C480.046 12.7733 480.166 12.6267 480.286 12.52C480.393 12.4267 480.553 12.3333 480.766 12.24C480.913 12.1733 481.12 12.14 481.386 12.14C481.626 12.14 481.84 12.18 482.026 12.26C482.2 12.34 482.34 12.4667 482.446 12.64C482.553 12.8133 482.626 12.9933 482.666 13.18C482.68 13.2333 482.686 13.32 482.686 13.44C482.686 13.6133 482.68 13.74 482.666 13.82C482.626 14.1667 482.54 14.5067 482.406 14.84C482.286 15.16 482.1 15.5067 481.846 15.88C481.593 16.2667 481.32 16.6133 481.026 16.92C480.706 17.2533 480.36 17.56 479.986 17.84L479.586 17.44C479.493 17.3467 479.453 17.2267 479.466 17.08C479.466 17.04 479.493 16.98 479.546 16.9C479.6 16.82 479.646 16.76 479.686 16.72L480.006 16.42C480.166 16.26 480.286 16.1267 480.366 16.02C480.606 15.7 480.726 15.54 480.726 15.54C480.833 15.38 480.92 15.1867 480.986 14.96C480.746 14.96 480.56 14.9267 480.426 14.86C480.253 14.7667 480.12 14.66 480.026 14.54C479.893 14.3533 479.813 14.2 479.786 14.08C479.76 13.9467 479.746 13.8333 479.746 13.74L479.766 13.48ZM498.431 13.2C498.751 13.28 498.891 13.4867 498.851 13.82L498.711 15H494.731L495.531 8.48C495.544 8.38667 495.551 8.25333 495.551 8.08C495.551 7.64 495.457 7.28667 495.271 7.02C495.031 6.67333 494.617 6.5 494.031 6.5C493.604 6.5 493.191 6.6 492.791 6.8C492.391 7 492.011 7.26 491.651 7.58L491.031 12.52L490.731 15H488.251L488.511 13.02L488.631 12.02L488.811 10.58L489.851 2.12L489.271 2.02C489.204 2.00667 489.144 1.99333 489.091 1.98C489.051 1.96667 489.011 1.96 488.971 1.96L488.851 1.94C488.531 1.86 488.391 1.65333 488.431 1.32L488.571 0.139999H492.551L491.851 5.86C492.251 5.51333 492.731 5.20667 493.291 4.94C493.797 4.7 494.371 4.58 495.011 4.58C495.544 4.58 496.031 4.67333 496.471 4.86C496.897 5.04667 497.231 5.31333 497.471 5.66C497.697 5.98 497.864 6.39333 497.971 6.9C498.024 7.15333 498.051 7.44667 498.051 7.78C498.051 8.08667 498.037 8.32 498.011 8.48L497.451 13.02L498.031 13.12L498.311 13.18L498.431 13.2ZM505.437 4.58C506.171 4.58 506.851 4.70667 507.477 4.96C508.077 5.2 508.564 5.54667 508.937 6C509.337 6.48 509.611 7.03333 509.757 7.66C509.864 8.11333 509.917 8.56 509.917 9C509.917 9.25333 509.897 9.53333 509.857 9.84C509.764 10.6267 509.551 11.36 509.217 12.04C508.897 12.7067 508.491 13.2667 507.997 13.72C507.477 14.2 506.904 14.5533 506.277 14.78C505.624 15.02 504.911 15.14 504.137 15.14C503.377 15.14 502.697 15.02 502.097 14.78C501.497 14.54 501.004 14.1867 500.617 13.72C500.231 13.2533 499.957 12.6933 499.797 12.04C499.691 11.5867 499.637 11.14 499.637 10.7C499.637 10.42 499.657 10.1333 499.697 9.84C499.791 9.06667 500.004 8.34 500.337 7.66C500.644 7.03333 501.057 6.48 501.577 6C502.071 5.54667 502.644 5.2 503.297 4.96C503.991 4.70667 504.704 4.58 505.437 4.58ZM504.377 13.24C505.231 13.24 505.897 12.9533 506.377 12.38C506.844 11.8067 507.151 10.9667 507.297 9.86C507.337 9.54 507.357 9.24 507.357 8.96C507.357 8.29333 507.237 7.75333 506.997 7.34C506.651 6.75333 506.057 6.46 505.217 6.46C504.337 6.46 503.657 6.75333 503.177 7.34C502.711 7.91333 502.404 8.76 502.257 9.88C502.217 10.2 502.197 10.5 502.197 10.78C502.197 11.42 502.317 11.9533 502.557 12.38C502.891 12.9533 503.497 13.24 504.377 13.24ZM513.912 15.16C513.032 15.16 512.379 14.9067 511.952 14.4C511.619 14.0133 511.452 13.48 511.452 12.8C511.452 12.5867 511.459 12.4267 511.472 12.32L512.192 6.6H511.152C511.019 6.6 510.905 6.55333 510.812 6.46C510.732 6.38 510.699 6.25333 510.712 6.08L510.832 5.08L512.512 4.82L513.392 2.02C513.419 1.91333 513.492 1.81333 513.612 1.72C513.719 1.64 513.845 1.6 513.992 1.6H515.272L514.872 4.84H517.572L517.352 6.6H514.652L513.972 12.16L513.952 12.38C513.952 12.58 514.005 12.7533 514.112 12.9C514.245 13.0733 514.452 13.16 514.732 13.16C514.919 13.16 515.045 13.1467 515.112 13.12L515.412 13L515.612 12.88C515.652 12.8533 515.719 12.84 515.812 12.84C515.892 12.84 515.945 12.8533 515.972 12.88C516.052 12.96 516.099 13.0133 516.112 13.04L516.712 14.24C516.339 14.52 515.892 14.7467 515.372 14.92C514.892 15.08 514.405 15.16 513.912 15.16ZM527.009 7.12C527.009 7.56 526.916 7.98 526.729 8.38C526.543 8.76667 526.216 9.10667 525.749 9.4C525.269 9.69333 524.629 9.95333 523.829 10.18C522.989 10.4067 521.956 10.58 520.729 10.7V10.82C520.729 12.4333 521.409 13.24 522.769 13.24C523.089 13.24 523.349 13.2133 523.549 13.16C523.843 13.08 524.043 13.0133 524.149 12.96C524.296 12.88 524.449 12.7867 524.609 12.68L524.989 12.42C525.189 12.2867 525.303 12.2133 525.329 12.2C525.436 12.1467 525.563 12.12 525.709 12.12C525.789 12.12 525.869 12.14 525.949 12.18C526.029 12.22 526.096 12.2733 526.149 12.34L526.769 13.1C526.423 13.4467 526.076 13.7533 525.729 14.02C525.356 14.3 525.009 14.5133 524.689 14.66C524.316 14.82 523.943 14.94 523.569 15.02C523.169 15.1 522.743 15.14 522.289 15.14C521.676 15.14 521.129 15.04 520.649 14.84C520.143 14.6267 519.729 14.34 519.409 13.98C519.049 13.6067 518.783 13.16 518.609 12.64C518.409 12.0667 518.309 11.48 518.309 10.88C518.309 10.3467 518.369 9.82 518.489 9.3C518.623 8.74 518.789 8.24667 518.989 7.82C519.189 7.39333 519.463 6.96667 519.809 6.54C520.129 6.14 520.489 5.8 520.889 5.52C521.316 5.22667 521.763 5 522.229 4.84C522.709 4.68 523.223 4.6 523.769 4.6C524.316 4.6 524.789 4.68 525.189 4.84C525.656 5.02667 525.996 5.22 526.209 5.42C526.449 5.63333 526.649 5.90667 526.809 6.24C526.943 6.52 527.009 6.81333 527.009 7.12ZM523.629 6.32C523.283 6.32 522.976 6.38667 522.709 6.52C522.403 6.66667 522.143 6.86 521.929 7.1C521.689 7.34 521.489 7.63333 521.329 7.98C521.169 8.32667 521.036 8.70667 520.929 9.12C521.823 8.98667 522.489 8.86 522.929 8.74C523.436 8.59333 523.823 8.44667 524.089 8.3C524.396 8.12667 524.583 7.96 524.649 7.8C524.729 7.65333 524.769 7.46 524.769 7.22C524.769 7.1 524.749 6.99333 524.709 6.9C524.669 6.80667 524.603 6.71333 524.509 6.62C524.376 6.51333 524.263 6.44 524.169 6.4C524.049 6.34667 523.869 6.32 523.629 6.32ZM531.463 13.2C531.783 13.28 531.923 13.4867 531.883 13.82L531.743 15H527.743L528.003 13.02L529.343 2.12L528.763 2.02C528.696 2.00667 528.636 1.99333 528.583 1.98C528.543 1.96667 528.503 1.96 528.463 1.96L528.343 1.94C528.023 1.86 527.883 1.65333 527.923 1.32L528.063 0.139999H532.043L530.463 13.02L531.043 13.12L531.343 13.18L531.463 13.2ZM540.402 10.68C540.482 10.8933 540.522 11.14 540.522 11.42C540.522 12.02 540.369 12.5867 540.062 13.12C539.822 13.5467 539.516 13.9067 539.142 14.2C538.742 14.5067 538.282 14.74 537.762 14.9C537.242 15.0733 536.649 15.16 535.982 15.16C535.382 15.16 534.796 15.1067 534.222 15C533.662 14.8933 533.189 14.76 532.802 14.6L532.922 13.6L533.142 11.7H534.302C534.556 11.7 534.696 11.8267 534.722 12.08L534.702 13.26C535.049 13.3667 535.582 13.42 536.302 13.42C536.582 13.42 536.842 13.3867 537.082 13.32C537.296 13.24 537.476 13.1467 537.622 13.04C537.809 12.9067 537.929 12.78 537.982 12.66C538.049 12.5133 538.096 12.3533 538.122 12.18V12.06C538.122 11.8867 538.076 11.7333 537.982 11.6C537.889 11.4667 537.716 11.3333 537.462 11.2C537.236 11.0667 536.982 10.9667 536.702 10.9L535.802 10.6C535.562 10.52 535.269 10.3933 534.922 10.22C534.616 10.0733 534.369 9.89333 534.182 9.68C533.942 9.42667 533.782 9.16 533.702 8.88C533.636 8.64 533.602 8.39333 533.602 8.14C533.602 7.95333 533.609 7.81333 533.622 7.72C533.689 7.26667 533.822 6.86667 534.022 6.52C534.249 6.12 534.536 5.78667 534.882 5.52C535.269 5.22667 535.702 5 536.182 4.84C536.729 4.66667 537.296 4.58 537.882 4.58C538.402 4.58 538.849 4.61333 539.222 4.68C539.609 4.74667 540.136 4.89333 540.802 5.12L540.442 8.02H539.282C539.029 8.02 538.889 7.89333 538.862 7.64L538.882 6.52C538.602 6.42667 538.209 6.38 537.702 6.38C537.209 6.38 536.816 6.48 536.522 6.68C536.216 6.88 536.042 7.15333 536.002 7.5V7.6C536.002 7.77333 536.049 7.92667 536.142 8.06C536.222 8.16667 536.396 8.29333 536.662 8.44C536.929 8.58667 537.182 8.69333 537.422 8.76L538.322 9.04C538.522 9.10667 538.809 9.23333 539.182 9.42C539.476 9.56667 539.722 9.74 539.922 9.94C540.149 10.14 540.309 10.3867 540.402 10.68ZM542.051 13.48C542.078 13.2667 542.131 13.0933 542.211 12.96C542.331 12.7733 542.451 12.6267 542.571 12.52C542.678 12.4267 542.838 12.3333 543.051 12.24C543.198 12.1733 543.405 12.14 543.671 12.14C543.911 12.14 544.125 12.18 544.311 12.26C544.485 12.34 544.625 12.4667 544.731 12.64C544.838 12.8133 544.911 12.9933 544.951 13.18C544.965 13.2333 544.971 13.32 544.971 13.44C544.971 13.6133 544.965 13.74 544.951 13.82C544.911 14.1667 544.825 14.5067 544.691 14.84C544.571 15.16 544.385 15.5067 544.131 15.88C543.878 16.2667 543.605 16.6133 543.311 16.92C542.991 17.2533 542.645 17.56 542.271 17.84L541.871 17.44C541.778 17.3467 541.738 17.2267 541.751 17.08C541.751 17.04 541.778 16.98 541.831 16.9C541.885 16.82 541.931 16.76 541.971 16.72L542.291 16.42C542.451 16.26 542.571 16.1267 542.651 16.02C542.891 15.7 543.011 15.54 543.011 15.54C543.118 15.38 543.205 15.1867 543.271 14.96C543.031 14.96 542.845 14.9267 542.711 14.86C542.538 14.7667 542.405 14.66 542.311 14.54C542.178 14.3533 542.098 14.2 542.071 14.08C542.045 13.9467 542.031 13.8333 542.031 13.74L542.051 13.48ZM559.696 13.18C560.029 13.26 560.176 13.4667 560.136 13.8L559.976 14.98H557.436C557.129 14.98 556.916 14.9133 556.796 14.78C556.676 14.6333 556.616 14.4533 556.616 14.24L556.696 12.84C556.202 13.5867 555.696 14.1467 555.176 14.52C554.629 14.9333 554.002 15.14 553.296 15.14C552.922 15.14 552.562 15.06 552.216 14.9C551.856 14.7267 551.562 14.5 551.336 14.22C551.096 13.94 550.902 13.56 550.756 13.08C550.609 12.6 550.536 12.0667 550.536 11.48C550.536 10.8533 550.616 10.2533 550.776 9.68C550.962 9.02667 551.176 8.48 551.416 8.04C551.709 7.50667 552.049 7.04 552.436 6.64C552.862 6.2 553.316 5.83333 553.796 5.54C554.369 5.19333 554.902 4.95333 555.396 4.82C555.982 4.66 556.589 4.58 557.216 4.58C557.642 4.58 558.109 4.61333 558.616 4.68C559.082 4.74667 559.536 4.86667 559.976 5.04L558.976 13.06L558.996 13.04L559.496 13.14L559.696 13.18ZM557.376 6.36C557.136 6.33333 556.969 6.32 556.876 6.32C556.316 6.32 555.802 6.44667 555.336 6.7C554.869 6.95333 554.462 7.29333 554.116 7.72C553.756 8.18667 553.482 8.68667 553.296 9.22C553.109 9.74 553.016 10.3467 553.016 11.04C553.016 11.76 553.122 12.2867 553.336 12.62C553.549 12.9533 553.862 13.12 554.276 13.12C554.542 13.12 554.809 13.0267 555.076 12.84C555.329 12.6667 555.576 12.4067 555.816 12.06C556.069 11.7133 556.289 11.3267 556.476 10.9C556.689 10.42 556.862 9.94 556.996 9.46L557.376 6.36ZM569.187 13.46C568.867 13.78 568.534 14.0533 568.187 14.28C567.907 14.4667 567.554 14.64 567.127 14.8C566.794 14.9067 566.427 14.9933 566.027 15.06C565.694 15.1133 565.327 15.14 564.927 15.14C564.274 15.14 563.694 15.0267 563.187 14.8C562.654 14.56 562.207 14.2133 561.847 13.76C561.487 13.2933 561.227 12.74 561.067 12.1C560.974 11.7267 560.927 11.3 560.927 10.82C560.927 10.5 560.947 10.1733 560.987 9.84C561.094 9.05333 561.287 8.36 561.567 7.76C561.874 7.10667 562.26 6.54667 562.727 6.08C563.207 5.6 563.767 5.23333 564.407 4.98C565.087 4.71333 565.82 4.58 566.607 4.58C567.46 4.58 568.507 4.82667 569.747 5.32L569.347 8.48H568.207C567.954 8.48 567.814 8.35333 567.787 8.1L567.807 6.66C567.327 6.52667 566.9 6.46 566.527 6.46C566.087 6.46 565.694 6.54 565.347 6.7C564.974 6.87333 564.674 7.09333 564.447 7.36C564.22 7.61333 564.02 7.97333 563.847 8.44C563.674 8.89333 563.56 9.36 563.507 9.84C563.48 10.1867 563.467 10.4467 563.467 10.62C563.467 10.78 563.48 11.0067 563.507 11.3C563.574 11.7133 563.694 12.0733 563.867 12.38C564.054 12.66 564.294 12.88 564.587 13.04C564.907 13.1867 565.254 13.26 565.627 13.26C566.04 13.26 566.367 13.2133 566.607 13.12C566.86 13.0267 567.074 12.92 567.247 12.8L567.727 12.48C567.86 12.3867 568.007 12.34 568.167 12.34C568.38 12.34 568.52 12.4133 568.587 12.56L569.187 13.46ZM573.697 15.16C572.817 15.16 572.164 14.9067 571.737 14.4C571.404 14.0133 571.237 13.48 571.237 12.8C571.237 12.5867 571.244 12.4267 571.257 12.32L571.977 6.6H570.937C570.804 6.6 570.691 6.55333 570.597 6.46C570.517 6.38 570.484 6.25333 570.497 6.08L570.617 5.08L572.297 4.82L573.177 2.02C573.204 1.91333 573.277 1.81333 573.397 1.72C573.504 1.64 573.631 1.6 573.777 1.6H575.057L574.657 4.84H577.357L577.137 6.6H574.437L573.757 12.16L573.737 12.38C573.737 12.58 573.791 12.7533 573.897 12.9C574.031 13.0733 574.237 13.16 574.517 13.16C574.704 13.16 574.831 13.1467 574.897 13.12L575.197 13L575.397 12.88C575.437 12.8533 575.504 12.84 575.597 12.84C575.677 12.84 575.731 12.8533 575.757 12.88C575.837 12.96 575.884 13.0133 575.897 13.04L576.497 14.24C576.124 14.52 575.677 14.7467 575.157 14.92C574.677 15.08 574.191 15.16 573.697 15.16ZM582.994 1.6C582.994 1.86667 582.928 2.12 582.794 2.36C582.714 2.50667 582.574 2.66667 582.374 2.84C582.201 2.98667 582.021 3.1 581.834 3.18C581.634 3.26 581.421 3.3 581.194 3.3C580.994 3.3 580.801 3.26 580.614 3.18C580.428 3.1 580.274 2.98667 580.154 2.84C580.021 2.69333 579.928 2.53333 579.874 2.36C579.821 2.21333 579.808 2.01333 579.834 1.76C579.848 1.56 579.914 1.34667 580.034 1.12C580.114 0.96 580.248 0.799999 580.434 0.639999C580.621 0.479999 580.794 0.366666 580.954 0.3C581.181 0.206666 581.388 0.159999 581.574 0.159999C581.774 0.159999 581.981 0.206666 582.194 0.3C582.381 0.379999 582.534 0.493333 582.654 0.639999C582.788 0.799999 582.881 0.96 582.934 1.12C582.974 1.25333 582.994 1.41333 582.994 1.6ZM582.234 13.2C582.554 13.28 582.694 13.4867 582.654 13.82L582.514 15H578.514L578.774 13.02L579.534 6.72L578.954 6.62L578.674 6.56L578.554 6.54C578.221 6.46 578.074 6.25333 578.114 5.92L578.274 4.74H582.254L581.234 13.02L581.814 13.12L582.094 13.18C582.134 13.1933 582.181 13.2 582.234 13.2ZM595.499 5.92C595.459 6.25333 595.266 6.46 594.919 6.54C594.879 6.54 594.799 6.55333 594.679 6.58C594.572 6.60667 594.332 6.65333 593.959 6.72L589.659 15H587.419L585.139 6.72C584.472 6.6 584.166 6.54 584.219 6.54C583.886 6.46 583.739 6.25333 583.779 5.92L583.939 4.74H588.919L588.779 5.92C588.739 6.25333 588.546 6.46 588.199 6.54L587.639 6.64L588.599 10.68C588.679 10.9867 588.739 11.3 588.779 11.62C588.806 11.8067 588.832 12.1133 588.859 12.54C589.019 12.06 589.126 11.7533 589.179 11.62C589.312 11.2867 589.452 10.9733 589.599 10.68L591.579 6.66C591.339 6.62 591.179 6.59333 591.099 6.58C591.032 6.55333 590.979 6.54 590.939 6.54C590.606 6.46 590.459 6.25333 590.499 5.92L590.659 4.74H595.639L595.499 5.92ZM601.295 1.6C601.295 1.86667 601.228 2.12 601.095 2.36C601.015 2.50667 600.875 2.66667 600.675 2.84C600.502 2.98667 600.322 3.1 600.135 3.18C599.935 3.26 599.722 3.3 599.495 3.3C599.295 3.3 599.102 3.26 598.915 3.18C598.728 3.1 598.575 2.98667 598.455 2.84C598.322 2.69333 598.228 2.53333 598.175 2.36C598.122 2.21333 598.108 2.01333 598.135 1.76C598.148 1.56 598.215 1.34667 598.335 1.12C598.415 0.96 598.548 0.799999 598.735 0.639999C598.922 0.479999 599.095 0.366666 599.255 0.3C599.482 0.206666 599.688 0.159999 599.875 0.159999C600.075 0.159999 600.282 0.206666 600.495 0.3C600.682 0.379999 600.835 0.493333 600.955 0.639999C601.088 0.799999 601.182 0.96 601.235 1.12C601.275 1.25333 601.295 1.41333 601.295 1.6ZM600.535 13.2C600.855 13.28 600.995 13.4867 600.955 13.82L600.815 15H596.815L597.075 13.02L597.835 6.72L597.255 6.62L596.975 6.56L596.855 6.54C596.522 6.46 596.375 6.25333 596.415 5.92L596.575 4.74H600.555L599.535 13.02L600.115 13.12L600.395 13.18C600.435 13.1933 600.482 13.2 600.535 13.2ZM605.26 15.16C604.38 15.16 603.726 14.9067 603.3 14.4C602.966 14.0133 602.8 13.48 602.8 12.8C602.8 12.5867 602.806 12.4267 602.82 12.32L603.54 6.6H602.5C602.366 6.6 602.253 6.55333 602.16 6.46C602.08 6.38 602.046 6.25333 602.06 6.08L602.18 5.08L603.86 4.82L604.74 2.02C604.766 1.91333 604.84 1.81333 604.96 1.72C605.066 1.64 605.193 1.6 605.34 1.6H606.62L606.22 4.84H608.92L608.7 6.6H606L605.32 12.16L605.3 12.38C605.3 12.58 605.353 12.7533 605.46 12.9C605.593 13.0733 605.8 13.16 606.08 13.16C606.266 13.16 606.393 13.1467 606.46 13.12L606.76 13L606.96 12.88C607 12.8533 607.066 12.84 607.16 12.84C607.24 12.84 607.293 12.8533 607.32 12.88C607.4 12.96 607.446 13.0133 607.46 13.04L608.06 14.24C607.686 14.52 607.24 14.7467 606.72 14.92C606.24 15.08 605.753 15.16 605.26 15.16ZM614.557 1.6C614.557 1.86667 614.49 2.12 614.357 2.36C614.277 2.50667 614.137 2.66667 613.937 2.84C613.764 2.98667 613.584 3.1 613.397 3.18C613.197 3.26 612.984 3.3 612.757 3.3C612.557 3.3 612.364 3.26 612.177 3.18C611.99 3.1 611.837 2.98667 611.717 2.84C611.584 2.69333 611.49 2.53333 611.437 2.36C611.384 2.21333 611.37 2.01333 611.397 1.76C611.41 1.56 611.477 1.34667 611.597 1.12C611.677 0.96 611.81 0.799999 611.997 0.639999C612.184 0.479999 612.357 0.366666 612.517 0.3C612.744 0.206666 612.95 0.159999 613.137 0.159999C613.337 0.159999 613.544 0.206666 613.757 0.3C613.944 0.379999 614.097 0.493333 614.217 0.639999C614.35 0.799999 614.444 0.96 614.497 1.12C614.537 1.25333 614.557 1.41333 614.557 1.6ZM613.797 13.2C614.117 13.28 614.257 13.4867 614.217 13.82L614.077 15H610.077L610.337 13.02L611.097 6.72L610.517 6.62L610.237 6.56L610.117 6.54C609.784 6.46 609.637 6.25333 609.677 5.92L609.837 4.74H613.817L612.797 13.02L613.377 13.12L613.657 13.18C613.697 13.1933 613.744 13.2 613.797 13.2ZM624.001 7.12C624.001 7.56 623.908 7.98 623.721 8.38C623.535 8.76667 623.208 9.10667 622.741 9.4C622.261 9.69333 621.621 9.95333 620.821 10.18C619.981 10.4067 618.948 10.58 617.721 10.7V10.82C617.721 12.4333 618.401 13.24 619.761 13.24C620.081 13.24 620.341 13.2133 620.541 13.16C620.835 13.08 621.035 13.0133 621.141 12.96C621.288 12.88 621.441 12.7867 621.601 12.68L621.981 12.42C622.181 12.2867 622.295 12.2133 622.321 12.2C622.428 12.1467 622.555 12.12 622.701 12.12C622.781 12.12 622.861 12.14 622.941 12.18C623.021 12.22 623.088 12.2733 623.141 12.34L623.761 13.1C623.415 13.4467 623.068 13.7533 622.721 14.02C622.348 14.3 622.001 14.5133 621.681 14.66C621.308 14.82 620.935 14.94 620.561 15.02C620.161 15.1 619.735 15.14 619.281 15.14C618.668 15.14 618.121 15.04 617.641 14.84C617.135 14.6267 616.721 14.34 616.401 13.98C616.041 13.6067 615.775 13.16 615.601 12.64C615.401 12.0667 615.301 11.48 615.301 10.88C615.301 10.3467 615.361 9.82 615.481 9.3C615.615 8.74 615.781 8.24667 615.981 7.82C616.181 7.39333 616.455 6.96667 616.801 6.54C617.121 6.14 617.481 5.8 617.881 5.52C618.308 5.22667 618.755 5 619.221 4.84C619.701 4.68 620.215 4.6 620.761 4.6C621.308 4.6 621.781 4.68 622.181 4.84C622.648 5.02667 622.988 5.22 623.201 5.42C623.441 5.63333 623.641 5.90667 623.801 6.24C623.935 6.52 624.001 6.81333 624.001 7.12ZM620.621 6.32C620.275 6.32 619.968 6.38667 619.701 6.52C619.395 6.66667 619.135 6.86 618.921 7.1C618.681 7.34 618.481 7.63333 618.321 7.98C618.161 8.32667 618.028 8.70667 617.921 9.12C618.815 8.98667 619.481 8.86 619.921 8.74C620.428 8.59333 620.815 8.44667 621.081 8.3C621.388 8.12667 621.575 7.96 621.641 7.8C621.721 7.65333 621.761 7.46 621.761 7.22C621.761 7.1 621.741 6.99333 621.701 6.9C621.661 6.80667 621.595 6.71333 621.501 6.62C621.368 6.51333 621.255 6.44 621.161 6.4C621.041 6.34667 620.861 6.32 620.621 6.32ZM632.375 10.68C632.455 10.8933 632.495 11.14 632.495 11.42C632.495 12.02 632.342 12.5867 632.035 13.12C631.795 13.5467 631.488 13.9067 631.115 14.2C630.715 14.5067 630.255 14.74 629.735 14.9C629.215 15.0733 628.622 15.16 627.955 15.16C627.355 15.16 626.768 15.1067 626.195 15C625.635 14.8933 625.162 14.76 624.775 14.6L624.895 13.6L625.115 11.7H626.275C626.528 11.7 626.668 11.8267 626.695 12.08L626.675 13.26C627.022 13.3667 627.555 13.42 628.275 13.42C628.555 13.42 628.815 13.3867 629.055 13.32C629.268 13.24 629.448 13.1467 629.595 13.04C629.782 12.9067 629.902 12.78 629.955 12.66C630.022 12.5133 630.068 12.3533 630.095 12.18V12.06C630.095 11.8867 630.048 11.7333 629.955 11.6C629.862 11.4667 629.688 11.3333 629.435 11.2C629.208 11.0667 628.955 10.9667 628.675 10.9L627.775 10.6C627.535 10.52 627.242 10.3933 626.895 10.22C626.588 10.0733 626.342 9.89333 626.155 9.68C625.915 9.42667 625.755 9.16 625.675 8.88C625.608 8.64 625.575 8.39333 625.575 8.14C625.575 7.95333 625.582 7.81333 625.595 7.72C625.662 7.26667 625.795 6.86667 625.995 6.52C626.222 6.12 626.508 5.78667 626.855 5.52C627.242 5.22667 627.675 5 628.155 4.84C628.702 4.66667 629.268 4.58 629.855 4.58C630.375 4.58 630.822 4.61333 631.195 4.68C631.582 4.74667 632.108 4.89333 632.775 5.12L632.415 8.02H631.255C631.002 8.02 630.862 7.89333 630.835 7.64L630.855 6.52C630.575 6.42667 630.182 6.38 629.675 6.38C629.182 6.38 628.788 6.48 628.495 6.68C628.188 6.88 628.015 7.15333 627.975 7.5V7.6C627.975 7.77333 628.022 7.92667 628.115 8.06C628.195 8.16667 628.368 8.29333 628.635 8.44C628.902 8.58667 629.155 8.69333 629.395 8.76L630.295 9.04C630.495 9.10667 630.782 9.23333 631.155 9.42C631.448 9.56667 631.695 9.74 631.895 9.94C632.122 10.14 632.282 10.3867 632.375 10.68ZM647.313 13.18C647.646 13.26 647.793 13.4667 647.753 13.8L647.593 14.98H645.053C644.746 14.98 644.533 14.9133 644.413 14.78C644.293 14.6333 644.233 14.4533 644.233 14.24L644.313 12.84C643.82 13.5867 643.313 14.1467 642.793 14.52C642.246 14.9333 641.62 15.14 640.913 15.14C640.54 15.14 640.18 15.06 639.833 14.9C639.473 14.7267 639.18 14.5 638.953 14.22C638.713 13.94 638.52 13.56 638.373 13.08C638.226 12.6 638.153 12.0667 638.153 11.48C638.153 10.8533 638.233 10.2533 638.393 9.68C638.58 9.02667 638.793 8.48 639.033 8.04C639.326 7.50667 639.666 7.04 640.053 6.64C640.48 6.2 640.933 5.83333 641.413 5.54C641.986 5.19333 642.52 4.95333 643.013 4.82C643.6 4.66 644.206 4.58 644.833 4.58C645.26 4.58 645.726 4.61333 646.233 4.68C646.7 4.74667 647.153 4.86667 647.593 5.04L646.593 13.06L646.613 13.04L647.113 13.14L647.313 13.18ZM644.993 6.36C644.753 6.33333 644.586 6.32 644.493 6.32C643.933 6.32 643.42 6.44667 642.953 6.7C642.486 6.95333 642.08 7.29333 641.733 7.72C641.373 8.18667 641.1 8.68667 640.913 9.22C640.726 9.74 640.633 10.3467 640.633 11.04C640.633 11.76 640.74 12.2867 640.953 12.62C641.166 12.9533 641.48 13.12 641.893 13.12C642.16 13.12 642.426 13.0267 642.693 12.84C642.946 12.6667 643.193 12.4067 643.433 12.06C643.686 11.7133 643.906 11.3267 644.093 10.9C644.306 10.42 644.48 9.94 644.613 9.46L644.993 6.36ZM659.144 13.2C659.464 13.28 659.604 13.4867 659.564 13.82L659.424 15H655.424L656.224 8.48C656.251 8.26667 656.264 8.12 656.264 8.04C656.264 7.62667 656.171 7.28667 655.984 7.02C655.744 6.67333 655.331 6.5 654.744 6.5C654.317 6.5 653.904 6.6 653.504 6.8C653.064 7.01333 652.677 7.27333 652.344 7.58L651.944 10.84L651.884 11.32L651.684 13.02L651.424 15H648.964L649.324 12.02L649.984 6.72L649.404 6.62C649.337 6.60667 649.277 6.59333 649.224 6.58C649.184 6.56667 649.144 6.56 649.104 6.56L648.984 6.54C648.664 6.46 648.524 6.25333 648.564 5.92L648.704 4.74H651.724C652.044 4.74 652.237 4.89333 652.304 5.2L652.384 6C652.624 5.77333 652.864 5.58 653.104 5.42C653.371 5.23333 653.631 5.08667 653.884 4.98C654.257 4.82 654.544 4.72 654.744 4.68C655.077 4.61333 655.404 4.58 655.724 4.58C656.311 4.58 656.797 4.67333 657.184 4.86C657.584 5.04667 657.911 5.31333 658.164 5.66C658.391 5.98 658.557 6.39333 658.664 6.9C658.717 7.15333 658.744 7.44667 658.744 7.78C658.744 8.08667 658.731 8.32 658.704 8.48L658.144 13.02L658.724 13.12L659.004 13.18C659.044 13.1933 659.091 13.2 659.144 13.2ZM667.74 14.96C667.58 14.96 667.447 14.92 667.34 14.84C667.234 14.76 667.174 14.6467 667.16 14.5L667.08 13.56C666.627 14.0267 666.107 14.4067 665.52 14.7C664.947 14.9933 664.3 15.14 663.58 15.14C662.994 15.14 662.494 15.0267 662.08 14.8C661.64 14.56 661.28 14.22 661 13.78C660.72 13.3267 660.527 12.78 660.42 12.14C660.367 11.6867 660.34 11.3333 660.34 11.08C660.34 10.8533 660.367 10.46 660.42 9.9C660.514 9.16667 660.707 8.46 661 7.78C661.267 7.15333 661.634 6.58667 662.1 6.08C662.527 5.61333 663.034 5.24 663.62 4.96C664.207 4.68 664.834 4.54 665.5 4.54C666.06 4.54 666.54 4.63333 666.94 4.82C667.367 5.02 667.7 5.26 667.94 5.54L668.36 2.12L667.78 2.02L667.48 1.96L667.36 1.94C667.04 1.86 666.9 1.65333 666.94 1.32L667.08 0.139999H671.06L669.48 13L669.98 13.08L670.24 13.14L670.36 13.16C670.68 13.24 670.82 13.4467 670.78 13.78L670.64 14.96H667.74ZM667.72 7.36C667.48 7.01333 667.2 6.77333 666.88 6.64C666.547 6.49333 666.2 6.42 665.84 6.42C665.48 6.42 665.134 6.49333 664.8 6.64C664.494 6.77333 664.214 6.98667 663.96 7.28C663.694 7.58667 663.487 7.94667 663.34 8.36C663.18 8.81333 663.06 9.32667 662.98 9.9C662.94 10.26 662.92 10.58 662.92 10.86C662.92 11.1267 662.927 11.32 662.94 11.44C662.98 11.8267 663.074 12.16 663.22 12.44C663.354 12.6933 663.554 12.8867 663.82 13.02C664.06 13.14 664.34 13.2 664.66 13.2C665.18 13.2 665.634 13.0933 666.02 12.88C666.42 12.64 666.794 12.3333 667.14 11.96L667.72 7.36ZM692.495 13.2C692.815 13.28 692.955 13.4867 692.915 13.82L692.775 15H688.795L689.595 8.48C689.608 8.37333 689.615 8.23333 689.615 8.06C689.615 7.62 689.521 7.26667 689.335 7C689.095 6.66667 688.701 6.5 688.155 6.5C687.915 6.5 687.668 6.54667 687.415 6.64C687.188 6.72 686.988 6.84 686.815 7C686.641 7.16 686.488 7.36667 686.355 7.62C686.221 7.88667 686.135 8.17333 686.095 8.48L685.855 10.42L685.675 11.9L685.555 13.02L685.295 15H682.815L683.615 8.48C683.641 8.24 683.655 8.06667 683.655 7.96C683.655 7.53333 683.568 7.20667 683.395 6.98C683.155 6.66 682.768 6.5 682.235 6.5C681.875 6.5 681.528 6.58667 681.195 6.76C680.861 6.93333 680.541 7.17333 680.235 7.48L679.755 11.46L679.315 15H676.855L677.355 10.86L677.875 6.72L677.295 6.62C677.228 6.60667 677.168 6.59333 677.115 6.58C677.075 6.56667 677.035 6.56 676.995 6.56L676.875 6.54C676.555 6.46 676.415 6.25333 676.455 5.92L676.595 4.74H679.615C679.935 4.74 680.128 4.89333 680.195 5.2L680.255 5.96C680.481 5.73333 680.695 5.54667 680.895 5.4C681.135 5.22667 681.361 5.08667 681.575 4.98C681.801 4.86 682.055 4.76 682.335 4.68C682.628 4.61333 682.915 4.58 683.195 4.58C683.848 4.58 684.355 4.75333 684.715 5.1C685.101 5.46 685.361 5.92667 685.495 6.5C685.721 6.12667 685.955 5.83333 686.195 5.62C686.408 5.43333 686.695 5.24 687.055 5.04C687.308 4.90667 687.628 4.79333 688.015 4.7C688.361 4.62 688.688 4.58 688.995 4.58C689.581 4.58 690.075 4.66667 690.475 4.84C690.915 5.02667 691.255 5.28 691.495 5.6C691.761 5.94667 691.941 6.35333 692.035 6.82C692.088 7.04667 692.115 7.32 692.115 7.64C692.115 7.89333 692.095 8.17333 692.055 8.48L691.515 13.02L692.075 13.12L692.375 13.18L692.495 13.2ZM699.519 4.58C700.253 4.58 700.933 4.70667 701.559 4.96C702.159 5.2 702.646 5.54667 703.019 6C703.419 6.48 703.693 7.03333 703.839 7.66C703.946 8.11333 703.999 8.56 703.999 9C703.999 9.25333 703.979 9.53333 703.939 9.84C703.846 10.6267 703.633 11.36 703.299 12.04C702.979 12.7067 702.573 13.2667 702.079 13.72C701.559 14.2 700.986 14.5533 700.359 14.78C699.706 15.02 698.993 15.14 698.219 15.14C697.459 15.14 696.779 15.02 696.179 14.78C695.579 14.54 695.086 14.1867 694.699 13.72C694.313 13.2533 694.039 12.6933 693.879 12.04C693.773 11.5867 693.719 11.14 693.719 10.7C693.719 10.42 693.739 10.1333 693.779 9.84C693.873 9.06667 694.086 8.34 694.419 7.66C694.726 7.03333 695.139 6.48 695.659 6C696.153 5.54667 696.726 5.2 697.379 4.96C698.073 4.70667 698.786 4.58 699.519 4.58ZM698.459 13.24C699.313 13.24 699.979 12.9533 700.459 12.38C700.926 11.8067 701.233 10.9667 701.379 9.86C701.419 9.54 701.439 9.24 701.439 8.96C701.439 8.29333 701.319 7.75333 701.079 7.34C700.733 6.75333 700.139 6.46 699.299 6.46C698.419 6.46 697.739 6.75333 697.259 7.34C696.793 7.91333 696.486 8.76 696.339 9.88C696.299 10.2 696.279 10.5 696.279 10.78C696.279 11.42 696.399 11.9533 696.639 12.38C696.973 12.9533 697.579 13.24 698.459 13.24ZM711.774 4.56C712.307 4.56 712.714 4.67333 712.994 4.9L712.454 6.76C712.414 6.88 712.354 6.96 712.274 7C712.207 7.05333 712.114 7.08 711.994 7.08C711.887 7.08 711.754 7.06 711.594 7.02C711.381 6.96667 711.154 6.94 710.914 6.94C710.407 6.94 709.954 7.08 709.554 7.36C709.181 7.62667 708.821 8.04667 708.474 8.62L708.034 12.18L707.674 15H705.214L705.454 13.02L705.594 11.84L705.694 11.14L706.234 6.72L705.234 6.54C704.914 6.46 704.774 6.25333 704.814 5.92L704.954 4.74H707.914C708.181 4.74 708.354 4.78667 708.434 4.88C708.527 5 708.574 5.16 708.574 5.36V6.6C709.014 5.97333 709.507 5.47333 710.054 5.1C710.601 4.74 711.174 4.56 711.774 4.56ZM722.439 7.12C722.439 7.56 722.346 7.98 722.159 8.38C721.972 8.76667 721.646 9.10667 721.179 9.4C720.699 9.69333 720.059 9.95333 719.259 10.18C718.419 10.4067 717.386 10.58 716.159 10.7V10.82C716.159 12.4333 716.839 13.24 718.199 13.24C718.519 13.24 718.779 13.2133 718.979 13.16C719.272 13.08 719.472 13.0133 719.579 12.96C719.726 12.88 719.879 12.7867 720.039 12.68L720.419 12.42C720.619 12.2867 720.732 12.2133 720.759 12.2C720.866 12.1467 720.992 12.12 721.139 12.12C721.219 12.12 721.299 12.14 721.379 12.18C721.459 12.22 721.526 12.2733 721.579 12.34L722.199 13.1C721.852 13.4467 721.506 13.7533 721.159 14.02C720.786 14.3 720.439 14.5133 720.119 14.66C719.746 14.82 719.372 14.94 718.999 15.02C718.599 15.1 718.172 15.14 717.719 15.14C717.106 15.14 716.559 15.04 716.079 14.84C715.572 14.6267 715.159 14.34 714.839 13.98C714.479 13.6067 714.212 13.16 714.039 12.64C713.839 12.0667 713.739 11.48 713.739 10.88C713.739 10.3467 713.799 9.82 713.919 9.3C714.052 8.74 714.219 8.24667 714.419 7.82C714.619 7.39333 714.892 6.96667 715.239 6.54C715.559 6.14 715.919 5.8 716.319 5.52C716.746 5.22667 717.192 5 717.659 4.84C718.139 4.68 718.652 4.6 719.199 4.6C719.746 4.6 720.219 4.68 720.619 4.84C721.086 5.02667 721.426 5.22 721.639 5.42C721.879 5.63333 722.079 5.90667 722.239 6.24C722.372 6.52 722.439 6.81333 722.439 7.12ZM719.059 6.32C718.712 6.32 718.406 6.38667 718.139 6.52C717.832 6.66667 717.572 6.86 717.359 7.1C717.119 7.34 716.919 7.63333 716.759 7.98C716.599 8.32667 716.466 8.70667 716.359 9.12C717.252 8.98667 717.919 8.86 718.359 8.74C718.866 8.59333 719.252 8.44667 719.519 8.3C719.826 8.12667 720.012 7.96 720.079 7.8C720.159 7.65333 720.199 7.46 720.199 7.22C720.199 7.1 720.179 6.99333 720.139 6.9C720.099 6.80667 720.032 6.71333 719.939 6.62C719.806 6.51333 719.692 6.44 719.599 6.4C719.479 6.34667 719.299 6.32 719.059 6.32Z" fill="white"/>
</svg>
