<svg width="279" height="23" viewBox="0 0 279 23" fill="none" xmlns="http://www.w3.org/2000/svg">
<path d="M26.424 1.824C26.392 2.08 26.256 2.232 26.016 2.28L24.792 2.544L18.072 18H15.984L13.224 4.896C13.16 4.592 13.12 4.304 13.104 4.032C13.072 4.112 13.04 4.184 13.008 4.248C12.976 4.312 12.944 4.384 12.912 4.464L12.768 4.896L6.768 18H4.68L1.776 2.544L0.576 2.28C0.352 2.232 0.256 2.08 0.288 1.824L0.408 0.816H6.24L6.12 1.824C6.088 2.08 5.944 2.232 5.688 2.28L4.296 2.544L6.168 13.296C6.248 13.904 6.296 14.4 6.312 14.784C6.536 14.096 6.72 13.6 6.864 13.296L12.36 1.344C12.408 1.248 12.52 1.128 12.696 0.983999C12.824 0.871999 13 0.816 13.224 0.816H13.896C14.312 0.816 14.552 0.992 14.616 1.344L17.184 13.296C17.248 13.584 17.312 14.064 17.376 14.736C17.424 14.592 17.464 14.456 17.496 14.328C17.544 14.2 17.584 14.088 17.616 13.992C17.712 13.672 17.792 13.44 17.856 13.296L22.368 2.544L21.048 2.28C20.808 2.232 20.704 2.08 20.736 1.824L20.856 0.816H26.544L26.424 1.824ZM39.0638 16.536C39.3038 16.584 39.4078 16.728 39.3758 16.968L39.2558 18H35.3918L36.3278 10.272C36.3598 9.952 36.3758 9.728 36.3758 9.6C36.3758 8.112 35.6238 7.368 34.1198 7.368C32.9358 7.368 31.7758 7.928 30.6398 9.048L30.0398 13.8L29.5358 18H27.3998L27.6878 15.648L29.3438 2.088C28.8958 2.024 28.5358 1.968 28.2638 1.92C27.9918 1.856 27.8318 1.816 27.7838 1.8C27.5438 1.752 27.4398 1.6 27.4718 1.344L27.5918 0.335999H31.6958L30.8318 7.488C32.1118 6.272 33.4878 5.664 34.9598 5.664C36.2878 5.664 37.2478 6.08 37.8398 6.912C38.2878 7.52 38.5118 8.328 38.5118 9.336C38.5118 9.736 38.4958 10.048 38.4637 10.272L37.7198 16.248C38.1358 16.328 38.4398 16.392 38.6318 16.44C38.8398 16.488 38.9838 16.52 39.0638 16.536ZM48.5691 18C48.0891 18 47.8491 17.752 47.8491 17.256L48.0651 14.832C47.1851 16.4 46.1371 17.432 44.9211 17.928C44.5371 18.088 44.1131 18.168 43.6491 18.168C42.5771 18.168 41.7771 17.776 41.2491 16.992C40.7371 16.192 40.4811 15.16 40.4811 13.896C40.4811 11.688 41.2171 9.776 42.6891 8.16C44.1931 6.512 46.0171 5.688 48.1611 5.688C49.3131 5.688 50.3051 5.872 51.1371 6.24L49.8891 16.248L51.2571 16.512C51.3691 16.528 51.4571 16.584 51.5211 16.68C51.5851 16.76 51.6171 16.856 51.6171 16.968V18H48.5691ZM48.9051 7.464C48.7611 7.336 48.5851 7.272 48.3771 7.272H47.8731C46.4331 7.272 45.1931 7.896 44.1531 9.144C43.1131 10.408 42.5931 11.864 42.5931 13.512C42.5931 15.432 43.2091 16.392 44.4411 16.392C45.2251 16.392 45.9691 15.936 46.6731 15.024C47.3611 14.144 47.9291 13 48.3771 11.592L48.9051 7.464ZM56.5035 18.192C55.5595 18.192 54.8555 17.92 54.3915 17.376C54.0235 16.96 53.8395 16.392 53.8395 15.672C53.8395 15.56 53.8555 15.36 53.8875 15.072L54.7995 7.632H53.3355C53.2075 7.632 53.1035 7.592 53.0235 7.512C52.9595 7.432 52.9355 7.312 52.9515 7.152L53.0475 6.312L55.0635 6.048L56.0235 2.304C56.0395 2.192 56.1035 2.096 56.2155 2.016C56.3275 1.936 56.4475 1.896 56.5755 1.896H57.6555L57.1275 6.096H60.6075L60.4155 7.632H56.9355L56.0475 14.928C56.0315 15.008 56.0235 15.112 56.0235 15.24C56.0235 15.592 56.1115 15.872 56.2875 16.08C56.5115 16.32 56.8155 16.44 57.1995 16.44C57.3595 16.44 57.5515 16.408 57.7755 16.344C57.9515 16.296 58.1035 16.232 58.2315 16.152L58.5675 15.96C58.6955 15.896 58.7755 15.864 58.8075 15.864C58.9195 15.864 59.0075 15.936 59.0715 16.08L59.5755 17.088C59.1275 17.456 58.6475 17.728 58.1355 17.904C57.5915 18.096 57.0475 18.192 56.5035 18.192ZM85.6935 6.864C85.6615 7.12 85.5175 7.272 85.2615 7.32L84.6375 7.44L84.0375 7.56L79.3815 18H77.7015C77.4935 18 77.3655 17.864 77.3175 17.592L75.6375 9.36C75.6055 9.248 75.5735 9.048 75.5415 8.76L75.4935 8.232L75.3015 8.808C75.2695 8.968 75.1975 9.152 75.0855 9.36L71.3415 17.592C71.2135 17.864 71.0375 18 70.8135 18H69.2055L67.0935 7.56C67.0295 7.56 66.9015 7.536 66.7095 7.488L65.9175 7.32C65.6935 7.272 65.5975 7.12 65.6295 6.864L65.7495 5.856H71.1735L71.0535 6.864C71.0215 7.12 70.8775 7.272 70.6215 7.32L69.2775 7.584L70.4055 14.112C70.4855 14.912 70.5255 15.456 70.5255 15.744C70.7335 15.216 70.9575 14.672 71.1975 14.112L74.7255 6.24C74.8535 5.952 75.0695 5.808 75.3735 5.808H76.3095C76.6135 5.808 76.7975 5.952 76.8615 6.24L78.3975 14.112C78.4615 14.384 78.5015 14.696 78.5175 15.048C78.5495 15.208 78.5815 15.44 78.6135 15.744C78.7255 15.328 78.9175 14.784 79.1895 14.112L81.9735 7.584C81.9255 7.584 81.8055 7.568 81.6135 7.536C81.4375 7.488 81.0935 7.416 80.5815 7.32C80.3415 7.272 80.2375 7.12 80.2695 6.864L80.3895 5.856H85.8135L85.6935 6.864ZM91.5883 5.664C92.4843 5.664 93.2683 5.808 93.9403 6.096C94.6443 6.4 95.2043 6.816 95.6203 7.344C96.0683 7.904 96.3723 8.568 96.5323 9.336C96.6283 9.784 96.6763 10.256 96.6763 10.752C96.6763 11.104 96.6523 11.488 96.6043 11.904C96.4763 12.864 96.2363 13.728 95.8843 14.496C95.5323 15.264 95.0683 15.92 94.4923 16.464C93.9003 17.04 93.2443 17.464 92.5243 17.736C91.7883 18.024 90.9643 18.168 90.0523 18.168C89.1563 18.168 88.3723 18.024 87.7003 17.736C87.0443 17.448 86.4923 17.024 86.0443 16.464C85.5803 15.872 85.2683 15.216 85.1083 14.496C84.9963 13.936 84.9403 13.424 84.9403 12.96C84.9403 12.608 84.9643 12.256 85.0123 11.904C85.1243 11.008 85.3723 10.152 85.7563 9.336C86.1243 8.536 86.5883 7.872 87.1483 7.344C87.7083 6.816 88.3723 6.4 89.1403 6.096C89.8923 5.808 90.7083 5.664 91.5883 5.664ZM90.2683 16.488C91.4683 16.488 92.4123 16.088 93.1003 15.288C93.8043 14.472 94.2363 13.352 94.3963 11.928C94.4443 11.512 94.4683 11.136 94.4683 10.8C94.4683 9.888 94.2923 9.136 93.9403 8.544C93.4443 7.728 92.5963 7.32 91.3963 7.32C90.7723 7.32 90.2283 7.424 89.7643 7.632C89.3323 7.824 88.9243 8.128 88.5403 8.544C88.2043 8.896 87.9243 9.376 87.7003 9.984C87.4763 10.592 87.3163 11.24 87.2203 11.928C87.1723 12.264 87.1483 12.584 87.1483 12.888C87.1483 13.224 87.1723 13.552 87.2203 13.872C87.3003 14.464 87.4603 14.936 87.7003 15.288C87.9563 15.672 88.3003 15.968 88.7323 16.176C89.1483 16.384 89.6603 16.488 90.2683 16.488ZM102.787 16.488C104.003 16.488 105.171 15.928 106.291 14.808L107.179 7.584L105.835 7.32C105.595 7.272 105.491 7.12 105.523 6.864L105.643 5.856H109.507L108.235 16.248L109.579 16.512C109.819 16.56 109.923 16.712 109.891 16.968L109.771 18H106.747C106.459 18 106.291 17.856 106.243 17.568L106.219 16.248C104.907 17.544 103.483 18.192 101.947 18.192C100.651 18.192 99.6913 17.776 99.0673 16.944C98.6193 16.352 98.3953 15.544 98.3953 14.52C98.3953 14.12 98.4113 13.808 98.4433 13.584L99.1873 7.584L97.8433 7.32C97.6193 7.272 97.5233 7.12 97.5553 6.864L97.6753 5.856H101.539L100.579 13.584C100.547 13.872 100.531 14.072 100.531 14.184C100.531 14.84 100.675 15.36 100.963 15.744C101.315 16.24 101.923 16.488 102.787 16.488ZM115.56 16.536C115.8 16.584 115.904 16.728 115.872 16.968L115.752 18H111.864L113.832 2.088C113.416 2.008 113.104 1.944 112.896 1.896C112.704 1.848 112.568 1.816 112.488 1.8C112.264 1.752 112.168 1.6 112.2 1.344L112.32 0.335999H116.184L114.216 16.248C114.648 16.328 114.96 16.392 115.152 16.44C115.36 16.488 115.496 16.52 115.56 16.536ZM123.17 5.616C124.53 5.616 125.578 6.096 126.314 7.056L126.938 2.064L125.354 1.8C125.114 1.752 125.01 1.6 125.042 1.344L125.186 0.311999H129.29L127.322 16.248L128.666 16.512C128.89 16.56 128.986 16.712 128.954 16.968L128.834 18H125.834C125.53 18 125.354 17.856 125.306 17.568V16.08C123.994 17.472 122.546 18.168 120.962 18.168C119.538 18.168 118.49 17.64 117.818 16.584C117.29 15.768 117.026 14.696 117.026 13.368C117.026 12.872 117.058 12.4 117.122 11.952C117.33 10.144 117.986 8.64 119.09 7.44C120.194 6.224 121.554 5.616 123.17 5.616ZM121.898 16.44C123.13 16.44 124.29 15.824 125.378 14.592L126.122 8.736C125.546 7.776 124.666 7.296 123.482 7.296C122.298 7.296 121.362 7.696 120.674 8.496C119.97 9.328 119.522 10.48 119.33 11.952C119.266 12.56 119.234 12.984 119.234 13.224C119.234 14.76 119.69 15.744 120.602 16.176C120.986 16.352 121.418 16.44 121.898 16.44ZM148.633 6.864C148.601 7.12 148.465 7.272 148.225 7.32L147.577 7.44C147.417 7.472 147.281 7.504 147.169 7.536C147.057 7.568 146.977 7.584 146.929 7.584L139.177 21.6C138.985 21.952 138.705 22.128 138.337 22.128H136.753L139.561 17.28L136.489 7.536L135.433 7.32C135.193 7.272 135.089 7.12 135.121 6.864L135.241 5.856H140.689L140.569 6.864C140.537 7.12 140.401 7.272 140.161 7.32L138.817 7.584L140.737 13.944C140.801 14.152 140.865 14.512 140.929 15.024C141.121 14.544 141.281 14.176 141.409 13.92L144.817 7.584L143.545 7.32C143.321 7.272 143.225 7.12 143.257 6.864L143.377 5.856H148.753L148.633 6.864ZM154.846 5.664C155.742 5.664 156.526 5.808 157.198 6.096C157.902 6.4 158.462 6.816 158.878 7.344C159.326 7.904 159.63 8.568 159.79 9.336C159.886 9.784 159.934 10.256 159.934 10.752C159.934 11.104 159.91 11.488 159.862 11.904C159.734 12.864 159.494 13.728 159.142 14.496C158.79 15.264 158.326 15.92 157.75 16.464C157.158 17.04 156.502 17.464 155.782 17.736C155.046 18.024 154.222 18.168 153.31 18.168C152.414 18.168 151.63 18.024 150.958 17.736C150.302 17.448 149.75 17.024 149.302 16.464C148.838 15.872 148.526 15.216 148.366 14.496C148.254 13.936 148.198 13.424 148.198 12.96C148.198 12.608 148.222 12.256 148.27 11.904C148.382 11.008 148.63 10.152 149.014 9.336C149.382 8.536 149.846 7.872 150.406 7.344C150.966 6.816 151.63 6.4 152.398 6.096C153.15 5.808 153.966 5.664 154.846 5.664ZM153.526 16.488C154.726 16.488 155.67 16.088 156.358 15.288C157.062 14.472 157.494 13.352 157.654 11.928C157.702 11.512 157.726 11.136 157.726 10.8C157.726 9.888 157.55 9.136 157.198 8.544C156.702 7.728 155.854 7.32 154.654 7.32C154.03 7.32 153.486 7.424 153.022 7.632C152.59 7.824 152.182 8.128 151.798 8.544C151.462 8.896 151.182 9.376 150.958 9.984C150.734 10.592 150.574 11.24 150.478 11.928C150.43 12.264 150.406 12.584 150.406 12.888C150.406 13.224 150.43 13.552 150.478 13.872C150.558 14.464 150.718 14.936 150.958 15.288C151.214 15.672 151.558 15.968 151.99 16.176C152.406 16.384 152.918 16.488 153.526 16.488ZM166.045 16.488C167.261 16.488 168.429 15.928 169.549 14.808L170.437 7.584L169.093 7.32C168.853 7.272 168.749 7.12 168.781 6.864L168.901 5.856H172.765L171.493 16.248L172.837 16.512C173.077 16.56 173.181 16.712 173.149 16.968L173.029 18H170.005C169.717 18 169.549 17.856 169.501 17.568L169.477 16.248C168.165 17.544 166.741 18.192 165.205 18.192C163.909 18.192 162.949 17.776 162.325 16.944C161.877 16.352 161.653 15.544 161.653 14.52C161.653 14.12 161.669 13.808 161.701 13.584L162.445 7.584L161.101 7.32C160.877 7.272 160.781 7.12 160.813 6.864L160.933 5.856H164.797L163.837 13.584C163.805 13.872 163.789 14.072 163.789 14.184C163.789 14.84 163.933 15.36 164.221 15.744C164.573 16.24 165.181 16.488 166.045 16.488ZM183.81 16.536C184.05 16.584 184.154 16.728 184.122 16.968L184.002 18H180.114L182.082 2.088C181.666 2.008 181.354 1.944 181.146 1.896C180.954 1.848 180.818 1.816 180.738 1.8C180.514 1.752 180.418 1.6 180.45 1.344L180.57 0.335999H184.434L182.466 16.248C182.898 16.328 183.21 16.392 183.402 16.44C183.61 16.488 183.746 16.52 183.81 16.536ZM191.12 1.44C191.184 1.6 191.2 1.8 191.168 2.04C191.152 2.2 191.088 2.392 190.976 2.616C190.896 2.76 190.76 2.92 190.568 3.096C190.376 3.256 190.2 3.368 190.04 3.432C189.832 3.512 189.632 3.552 189.44 3.552C189.264 3.552 189.08 3.512 188.888 3.432C188.712 3.352 188.56 3.24 188.432 3.096C188.304 2.936 188.216 2.776 188.168 2.616C188.136 2.456 188.12 2.32 188.12 2.208C188.12 1.952 188.184 1.696 188.312 1.44C188.408 1.232 188.536 1.064 188.696 0.935999C188.856 0.807999 189.032 0.703999 189.224 0.623999C189.432 0.543999 189.632 0.503999 189.824 0.503999C190.016 0.503999 190.208 0.543999 190.4 0.623999C190.576 0.703999 190.72 0.807999 190.832 0.935999C190.944 1.08 191.04 1.248 191.12 1.44ZM190.28 16.512C190.392 16.528 190.472 16.584 190.52 16.68C190.584 16.76 190.608 16.856 190.592 16.968L190.472 18H186.584L186.8 16.248L187.88 7.584L186.536 7.32C186.424 7.304 186.336 7.256 186.272 7.176C186.224 7.096 186.208 7 186.224 6.888L186.344 5.856H190.232L188.936 16.248L190.28 16.512ZM204.081 6.864C204.065 7.104 203.945 7.248 203.721 7.296L202.209 7.584L198.993 10.608C198.673 10.928 198.417 11.136 198.225 11.232C198.465 11.408 198.673 11.664 198.849 12L201.705 16.248L202.305 16.368C202.417 16.384 202.577 16.408 202.785 16.44C203.009 16.472 203.161 16.528 203.241 16.608C203.321 16.688 203.353 16.808 203.337 16.968L203.217 18H200.937C200.617 18 200.369 17.864 200.193 17.592L196.809 12.6C196.713 12.424 196.609 12.312 196.497 12.264C196.401 12.216 196.225 12.192 195.969 12.192H195.369L194.649 18H192.489L194.457 2.064L193.113 1.8C192.889 1.752 192.793 1.6 192.825 1.344L192.945 0.311999H196.809L195.537 10.728H196.089C196.361 10.728 196.625 10.616 196.881 10.392L199.977 7.44C199.897 7.424 199.761 7.4 199.569 7.368C199.377 7.336 199.233 7.288 199.137 7.224C199.041 7.144 199.001 7.024 199.017 6.864L199.137 5.832H204.201L204.081 6.864ZM213.228 15.744C212.476 16.528 211.716 17.128 210.948 17.544C210.18 17.96 209.236 18.168 208.116 18.168C207.028 18.168 206.14 17.912 205.452 17.4C204.764 16.888 204.268 16.184 203.964 15.288C203.756 14.712 203.652 14.032 203.652 13.248C203.652 11.28 204.22 9.544 205.356 8.04C206.54 6.472 208.076 5.688 209.964 5.688C210.78 5.688 211.476 5.848 212.052 6.168C212.644 6.488 213.06 6.936 213.3 7.512C213.444 7.848 213.516 8.16 213.516 8.448C213.516 9.088 213.388 9.616 213.132 10.032C212.892 10.448 212.516 10.808 212.004 11.112C211.428 11.464 210.636 11.776 209.628 12.048C208.716 12.288 207.42 12.496 205.74 12.672V13.2C205.74 15.392 206.676 16.488 208.548 16.488C209.492 16.488 210.308 16.224 210.996 15.696C211.476 15.328 211.78 15.104 211.908 15.024C212.036 14.944 212.164 14.904 212.292 14.904C212.452 14.904 212.588 14.968 212.7 15.096L213.228 15.744ZM211.596 8.544C211.596 8.128 211.428 7.808 211.092 7.584C210.756 7.344 210.34 7.224 209.844 7.224C209.044 7.224 208.364 7.456 207.804 7.92C207.26 8.368 206.82 8.952 206.484 9.672C206.228 10.184 206.044 10.712 205.932 11.256C207.068 11.128 208.06 10.952 208.908 10.728C209.596 10.552 210.164 10.344 210.612 10.104C210.948 9.912 211.196 9.704 211.356 9.48C211.516 9.24 211.596 8.928 211.596 8.544ZM222.769 18.192C221.825 18.192 221.121 17.92 220.657 17.376C220.289 16.96 220.105 16.392 220.105 15.672C220.105 15.56 220.121 15.36 220.153 15.072L221.065 7.632H219.601C219.473 7.632 219.369 7.592 219.289 7.512C219.225 7.432 219.201 7.312 219.217 7.152L219.313 6.312L221.329 6.048L222.289 2.304C222.305 2.192 222.369 2.096 222.481 2.016C222.593 1.936 222.713 1.896 222.841 1.896H223.921L223.393 6.096H226.873L226.681 7.632H223.201L222.313 14.928C222.297 15.008 222.289 15.112 222.289 15.24C222.289 15.592 222.377 15.872 222.553 16.08C222.777 16.32 223.081 16.44 223.465 16.44C223.625 16.44 223.817 16.408 224.041 16.344C224.217 16.296 224.369 16.232 224.497 16.152L224.833 15.96C224.961 15.896 225.041 15.864 225.073 15.864C225.185 15.864 225.273 15.936 225.337 16.08L225.841 17.088C225.393 17.456 224.913 17.728 224.401 17.904C223.857 18.096 223.313 18.192 222.769 18.192ZM233.76 5.664C234.656 5.664 235.44 5.808 236.112 6.096C236.816 6.4 237.376 6.816 237.792 7.344C238.24 7.904 238.544 8.568 238.704 9.336C238.8 9.784 238.848 10.256 238.848 10.752C238.848 11.104 238.824 11.488 238.776 11.904C238.648 12.864 238.408 13.728 238.056 14.496C237.704 15.264 237.24 15.92 236.664 16.464C236.072 17.04 235.416 17.464 234.696 17.736C233.96 18.024 233.136 18.168 232.224 18.168C231.328 18.168 230.544 18.024 229.872 17.736C229.216 17.448 228.664 17.024 228.216 16.464C227.752 15.872 227.44 15.216 227.28 14.496C227.168 13.936 227.112 13.424 227.112 12.96C227.112 12.608 227.136 12.256 227.184 11.904C227.296 11.008 227.544 10.152 227.928 9.336C228.296 8.536 228.76 7.872 229.32 7.344C229.88 6.816 230.544 6.4 231.312 6.096C232.064 5.808 232.88 5.664 233.76 5.664ZM232.44 16.488C233.64 16.488 234.584 16.088 235.272 15.288C235.976 14.472 236.408 13.352 236.568 11.928C236.616 11.512 236.64 11.136 236.64 10.8C236.64 9.888 236.464 9.136 236.112 8.544C235.616 7.728 234.768 7.32 233.568 7.32C232.944 7.32 232.4 7.424 231.936 7.632C231.504 7.824 231.096 8.128 230.712 8.544C230.376 8.896 230.096 9.376 229.872 9.984C229.648 10.592 229.488 11.24 229.392 11.928C229.344 12.264 229.32 12.584 229.32 12.888C229.32 13.224 229.344 13.552 229.392 13.872C229.472 14.464 229.632 14.936 229.872 15.288C230.128 15.672 230.472 15.968 230.904 16.176C231.32 16.384 231.832 16.488 232.44 16.488ZM250.599 5.616C251.959 5.616 253.007 6.096 253.743 7.056L254.367 2.064L252.783 1.8C252.543 1.752 252.439 1.6 252.471 1.344L252.615 0.311999H256.719L254.751 16.248L256.095 16.512C256.319 16.56 256.415 16.712 256.383 16.968L256.263 18H253.263C252.959 18 252.783 17.856 252.735 17.568V16.08C251.423 17.472 249.975 18.168 248.391 18.168C246.967 18.168 245.919 17.64 245.247 16.584C244.719 15.768 244.455 14.696 244.455 13.368C244.455 12.872 244.487 12.4 244.551 11.952C244.759 10.144 245.415 8.64 246.519 7.44C247.623 6.224 248.983 5.616 250.599 5.616ZM249.327 16.44C250.559 16.44 251.719 15.824 252.807 14.592L253.551 8.736C252.975 7.776 252.095 7.296 250.911 7.296C249.727 7.296 248.791 7.696 248.103 8.496C247.399 9.328 246.951 10.48 246.759 11.952C246.695 12.56 246.663 12.984 246.663 13.224C246.663 14.76 247.119 15.744 248.031 16.176C248.415 16.352 248.847 16.44 249.327 16.44ZM264.182 5.664C265.078 5.664 265.862 5.808 266.534 6.096C267.238 6.4 267.798 6.816 268.214 7.344C268.662 7.904 268.966 8.568 269.126 9.336C269.222 9.784 269.27 10.256 269.27 10.752C269.27 11.104 269.246 11.488 269.198 11.904C269.07 12.864 268.83 13.728 268.478 14.496C268.126 15.264 267.662 15.92 267.086 16.464C266.494 17.04 265.838 17.464 265.118 17.736C264.382 18.024 263.558 18.168 262.646 18.168C261.75 18.168 260.966 18.024 260.294 17.736C259.638 17.448 259.086 17.024 258.638 16.464C258.174 15.872 257.862 15.216 257.702 14.496C257.59 13.936 257.534 13.424 257.534 12.96C257.534 12.608 257.558 12.256 257.606 11.904C257.718 11.008 257.966 10.152 258.35 9.336C258.718 8.536 259.182 7.872 259.742 7.344C260.302 6.816 260.966 6.4 261.734 6.096C262.486 5.808 263.302 5.664 264.182 5.664ZM262.862 16.488C264.062 16.488 265.006 16.088 265.694 15.288C266.398 14.472 266.83 13.352 266.99 11.928C267.038 11.512 267.062 11.136 267.062 10.8C267.062 9.888 266.886 9.136 266.534 8.544C266.038 7.728 265.19 7.32 263.99 7.32C263.366 7.32 262.822 7.424 262.358 7.632C261.926 7.824 261.518 8.128 261.134 8.544C260.798 8.896 260.518 9.376 260.294 9.984C260.07 10.592 259.91 11.24 259.814 11.928C259.766 12.264 259.742 12.584 259.742 12.888C259.742 13.224 259.766 13.552 259.814 13.872C259.894 14.464 260.054 14.936 260.294 15.288C260.55 15.672 260.894 15.968 261.326 16.176C261.742 16.384 262.254 16.488 262.862 16.488ZM270.365 2.352C270.669 2.096 270.973 1.872 271.277 1.68C271.565 1.488 271.917 1.304 272.333 1.128C272.701 0.967999 273.101 0.839999 273.533 0.743999C273.965 0.647999 274.413 0.599999 274.877 0.599999C275.501 0.599999 276.077 0.695999 276.605 0.887999C277.117 1.08 277.549 1.336 277.901 1.656C278.269 1.992 278.533 2.4 278.693 2.88C278.805 3.168 278.861 3.512 278.861 3.912C278.861 4.024 278.845 4.224 278.813 4.512C278.733 5.136 278.581 5.656 278.357 6.072C278.085 6.568 277.813 6.96 277.541 7.248C277.253 7.552 276.909 7.84 276.509 8.112L275.525 8.784C275.253 8.976 274.981 9.192 274.709 9.432C274.485 9.64 274.333 9.88 274.253 10.152L273.821 12H272.357L272.453 10.008L272.477 9.864C272.525 9.528 272.653 9.232 272.861 8.976C273.101 8.688 273.357 8.448 273.629 8.256C273.821 8.112 273.997 7.984 274.157 7.872C274.333 7.76 274.485 7.656 274.613 7.56C275.061 7.24 275.381 6.992 275.573 6.816C275.925 6.48 276.197 6.16 276.389 5.856C276.613 5.472 276.749 5.056 276.797 4.608C276.813 4.528 276.821 4.424 276.821 4.296C276.821 4.072 276.789 3.872 276.725 3.696C276.629 3.424 276.469 3.184 276.245 2.976C275.989 2.752 275.733 2.6 275.477 2.52C275.109 2.408 274.781 2.352 274.493 2.352C274.029 2.352 273.605 2.416 273.221 2.544C272.821 2.672 272.509 2.8 272.285 2.928C272.141 3.008 271.933 3.144 271.661 3.336C271.501 3.448 271.365 3.504 271.253 3.504C271.061 3.504 270.917 3.416 270.821 3.24L270.365 2.352ZM270.965 16.848C270.965 16.592 271.029 16.336 271.157 16.08C271.237 15.92 271.357 15.76 271.517 15.6C271.645 15.472 271.821 15.368 272.045 15.288C272.253 15.208 272.453 15.168 272.645 15.168C272.837 15.168 273.029 15.208 273.221 15.288C273.397 15.368 273.541 15.472 273.653 15.6C273.797 15.76 273.885 15.92 273.917 16.08C273.949 16.272 273.965 16.416 273.965 16.512C273.965 16.768 273.901 17.024 273.773 17.28C273.725 17.376 273.597 17.528 273.389 17.736C273.229 17.896 273.061 18.008 272.885 18.072C272.709 18.136 272.501 18.168 272.261 18.168C272.037 18.168 271.853 18.136 271.709 18.072C271.533 17.992 271.381 17.88 271.253 17.736C271.141 17.592 271.061 17.44 271.013 17.28C270.981 17.088 270.965 16.944 270.965 16.848Z" fill="#F2785C"/>
</svg>
